<?xml version="1.0" encoding="utf-8"?>
<!-- Generator: Adobe Illustrator 22.0.0, SVG Export Plug-In . SVG Version: 6.00 Build 0)  -->
<svg version="1.1" xmlns="http://www.w3.org/2000/svg" xmlns:xlink="http://www.w3.org/1999/xlink" x="0px" y="0px"
	 viewBox="0 0 300 300" style="enable-background:new 0 0 300 300;" xml:space="preserve">
<style type="text/css">
	.st0{fill:none;stroke:#FFFFFF;stroke-width:3;stroke-miterlimit:10;stroke-dasharray:8;}
	.st1{fill:#EDEDEE;}
	.st2{fill:#FFFFFF;}
	.st3{fill:#FF6064;}
	.st4{fill:#653FE0;}
	.st5{fill:none;stroke:#FFFFFF;stroke-width:2.5;stroke-linecap:round;stroke-linejoin:round;stroke-miterlimit:10;}
	.st6{fill:#FC7F10;}
	.st7{fill:#F13F42;}
	.st8{fill:#FDA20C;}
	.st9{fill:#009EFA;}
	.st10{fill:#FCB810;}
	.st11{fill:#0087FE;}
	.st12{fill:#9CCC39;}
	.st13{fill:#8465E6;}
	.st14{fill:#80B924;}
	.st15{fill:#8E9093;}
	.st16{fill:#EC5657;}
	.st17{fill:#231F20;}
	.st18{opacity:0.2;}
	.st19{fill:none;stroke:#FFFFFF;stroke-width:2;stroke-miterlimit:10;}
	.st20{opacity:0.8;fill:none;stroke:#A2A4A7;stroke-width:2;stroke-miterlimit:10;}
	.st21{opacity:0.7;}
	.st22{fill:#71C2ED;}
	.st23{fill:#EF5E41;}
	.st24{fill:#8D53E8;}
	.st25{fill:#A66CEF;}
	.st26{fill:#E5E7E8;}
	.st27{fill:#00A1A9;}
	.st28{fill:#5A5A5D;}
	.st29{fill:#59595C;}
	.st30{fill:none;stroke:#FFFFFF;stroke-miterlimit:10;}
	.st31{fill:#808080;}
	.st32{fill:#2E2E2F;}
	.st33{fill:#2E2E2F;stroke:#4D4D4D;stroke-width:0.75;stroke-miterlimit:10;}
	.st34{fill:#E0D9F9;}
	.st35{fill:#404041;}
	.st36{fill:#404041;stroke:#FFFFFF;stroke-width:2;stroke-linejoin:round;stroke-miterlimit:10;}
	.st37{fill:none;stroke:#FFFFFF;stroke-width:2;stroke-linecap:round;stroke-linejoin:round;}
	.st38{fill:none;stroke:#FFFFFF;stroke-width:2;stroke-linecap:round;stroke-linejoin:round;stroke-dasharray:2.9493,2.9493;}
	.st39{fill:none;stroke:#FFFFFF;stroke-width:2;stroke-linecap:round;stroke-linejoin:round;stroke-dasharray:3.1622,3.1622;}
	.st40{fill:none;stroke:#FFFFFF;stroke-width:2;stroke-linecap:round;stroke-linejoin:round;stroke-dasharray:2.7981,2.7981;}
	.st41{fill:#A3A5B3;}
	.st42{fill:none;stroke:#6D6E70;stroke-width:0.5;stroke-miterlimit:10;}
	.st43{fill:none;stroke:#FFFFFF;stroke-width:2.5;stroke-miterlimit:10;}
	.st44{fill:#22B373;stroke:#FFFFFF;stroke-width:2.5;stroke-miterlimit:10;}
	.st45{fill:#22B373;stroke:#FFFFFF;stroke-width:2.5;stroke-linecap:round;stroke-miterlimit:10;}
	.st46{fill:none;}
	.st47{fill:none;stroke:#FFFFFF;stroke-width:3;stroke-miterlimit:10;}
	.st48{fill:none;stroke:#FFFFFF;stroke-width:3;stroke-miterlimit:10;stroke-dasharray:3.1802,3.1802;}
	.st49{fill:none;stroke:#FFFFFF;stroke-width:3;stroke-miterlimit:10;stroke-dasharray:3.1983,3.1983;}
	.st50{fill:none;stroke:#FFFFFF;stroke-width:3;stroke-miterlimit:10;stroke-dasharray:3.0388,3.0388;}
	.st51{fill:none;stroke:#FFFFFF;stroke-width:2.5;stroke-linejoin:round;stroke-miterlimit:10;}
	.st52{fill:none;stroke:#FFFFFF;stroke-width:3;stroke-miterlimit:10;stroke-dasharray:2.8444,2.8444;}
	.st53{fill:#58595B;}
	.st54{fill:#C5CED6;}
	.st55{fill:#3D3D3F;}
	.st56{fill:#7C828B;}
	.st57{fill:#FFFFFF;stroke:#FFFFFF;stroke-miterlimit:10;}
	.st58{fill:#B0B2B3;}
	.st59{clip-path:url(#SVGID_2_);}
	.st60{fill:#333333;stroke:#FFFFFF;stroke-width:6;stroke-linejoin:round;stroke-miterlimit:10;}
	.st61{fill:#333333;}
	.st62{opacity:0.59;}
	.st63{opacity:0.25;}
	.st64{opacity:0.74;}
	.st65{fill:#606060;}
	.st66{fill:#F28E1E;}
	.st67{fill:none;stroke:#FFFFFF;stroke-width:11.8137;stroke-linecap:round;stroke-linejoin:round;stroke-miterlimit:10;}
	.st68{fill:none;stroke:#FFFFFF;stroke-width:9.9518;stroke-linecap:round;stroke-linejoin:round;stroke-miterlimit:10;}
	.st69{fill:none;stroke:#FFFFFF;stroke-width:9.8213;stroke-linecap:round;stroke-linejoin:round;stroke-miterlimit:10;}
	.st70{fill:none;stroke:#FFFFFF;stroke-width:11.0802;stroke-linecap:round;stroke-linejoin:round;stroke-miterlimit:10;}
	.st71{fill:none;stroke:#FFFFFF;stroke-width:11.301;stroke-linecap:round;stroke-linejoin:round;stroke-miterlimit:10;}
	.st72{fill:none;stroke:#FFFFFF;stroke-width:10.0586;stroke-linecap:round;stroke-linejoin:round;stroke-miterlimit:10;}
	.st73{fill:none;stroke:#FFFFFF;stroke-width:11.1938;stroke-linecap:round;stroke-linejoin:round;stroke-miterlimit:10;}
	.st74{fill:none;stroke:#FFFFFF;stroke-width:9.8416;stroke-linecap:round;stroke-linejoin:round;stroke-miterlimit:10;}
	.st75{fill:none;stroke:#FFFFFF;stroke-width:8.535;stroke-linecap:round;stroke-linejoin:round;stroke-miterlimit:10;}
	.st76{fill:none;stroke:#FFFFFF;stroke-width:9.8868;stroke-linecap:round;stroke-linejoin:round;stroke-miterlimit:10;}
	.st77{fill:none;stroke:#FFFFFF;stroke-width:9.1425;stroke-linecap:round;stroke-linejoin:round;stroke-miterlimit:10;}
	.st78{fill:none;stroke:#FFFFFF;stroke-width:8.8888;stroke-linecap:round;stroke-linejoin:round;stroke-miterlimit:10;}
	.st79{fill:none;stroke:#FFFFFF;stroke-width:9.9769;stroke-linecap:round;stroke-linejoin:round;stroke-miterlimit:10;}
	.st80{fill:none;stroke:#FFFFFF;stroke-width:8.7375;stroke-linecap:round;stroke-linejoin:round;stroke-miterlimit:10;}
	.st81{fill:none;stroke:#FFFFFF;stroke-width:8.615;stroke-linecap:round;stroke-linejoin:round;stroke-miterlimit:10;}
	.st82{fill:none;stroke:#FFFFFF;stroke-width:1.5;stroke-miterlimit:10;}
	.st83{fill:none;stroke:#FFFFFF;stroke-width:1.5;stroke-miterlimit:10;stroke-dasharray:8;}
	.st84{fill:#33B4BA;}
	.st85{fill:#FFFFFF;stroke:#33B4BA;stroke-width:0.75;stroke-miterlimit:10;}
	.st86{fill:#FFFFFF;stroke:#33B4BA;stroke-width:2;stroke-miterlimit:10;}
	.st87{clip-path:url(#SVGID_4_);}
	.st88{display:none;}
	.st89{display:inline;}
	.st90{opacity:0.1;fill:#26A5DC;}
	.st91{display:inline;fill:#33B4BA;}
	.st92{display:inline;fill:#FFFFFF;stroke:#33B4BA;stroke-width:0.75;stroke-miterlimit:10;}
</style>
<g id="_x3C_Guides_x3E__6_">
</g>
<g id="Layer_4">
	<g>
		<g>
			<g>
				<g>
					<line class="st80" x1="264.4" y1="184.2" x2="264.4" y2="218.7"/>
					<polyline class="st80" points="220.1,218.7 264.4,218.7 264.4,184.2 					"/>
					<path class="st80" d="M295,218.7c-2.3-25-7.8-40.8-14.6-51.2c-4.5-6.9-9.9-11.3-14.8-13.8c-4.9-2.5-9.2-3-11.7-3
						c-0.9,0-1.5,0.1-2,0.1c0,0,0,0,0,0H238h-22h-9h-4.9c0,0,0,0,0,0h0c-0.4-0.1-1.1-0.1-2-0.1c-2.5,0-6.8,0.5-11.7,3
						c-2.2,1.1-2.2,1.1-2.2,1.1"/>
				</g>
				<line class="st80" x1="223.6" y1="218.7" x2="295" y2="218.7"/>
				
					<ellipse transform="matrix(0.9997 -2.497725e-02 2.497725e-02 0.9997 -2.684 5.6737)" class="st80" cx="225.8" cy="110.3" rx="33.3" ry="33.3"/>
			</g>
			<g>
				<line class="st80" x1="188.6" y1="188.4" x2="188.6" y2="223"/>
				<polyline class="st80" points="113.8,188.4 113.8,223 188.6,223 188.6,188.4 				"/>
				<path class="st80" d="M219.2,223c-2.3-25-7.8-40.8-14.6-51.2c-4.5-6.9-9.9-11.3-14.8-13.8c-4.9-2.5-9.2-3-11.7-3
					c-0.9,0-1.5,0.1-2,0.1c0,0,0,0,0,0h-13.9h-22h-9h-4.9c0,0,0,0,0,0h0c-0.4,0-1.1-0.1-1.9-0.1c-2.5,0-6.8,0.5-11.7,3
					c-2.3,1.1-4.5,2.6-6.8,4.6c-5.2,4.5-10.3,11.5-14.2,21.4c-3.5,8.9-6.3,20.3-8,35.1c-0.1,1.3-0.3,2.5-0.4,3.8"/>
				<line class="st80" x1="113.8" y1="223" x2="113.8" y2="188.4"/>
			</g>
			<line class="st80" x1="83.2" y1="223" x2="219.2" y2="223"/>
			<path class="st80" d="M183.3,114.6c0,18.4-14.9,33.3-33.3,33.3c-18.4,0-33.3-14.9-33.3-33.3c0-18.4,14.9-33.3,33.3-33.3
				C168.3,81.3,183.3,96.2,183.3,114.6z"/>
			<g>
				<g>
					<line class="st80" x1="35.6" y1="184.2" x2="35.6" y2="218.7"/>
					<polyline class="st80" points="79.9,218.7 35.6,218.7 35.6,184.2 					"/>
					<path class="st80" d="M5,218.7c2.3-25,7.8-40.8,14.6-51.2c4.5-6.9,9.9-11.3,14.8-13.8c4.9-2.5,9.2-3,11.7-3
						c0.9,0,1.5,0.1,2,0.1c0,0,0,0,0,0H62h22h9h4.9c0,0,0,0,0,0h0c0.4-0.1,1.1-0.1,2-0.1c2.5,0,6.8,0.5,11.7,3
						c2.2,1.1,2.2,1.1,2.2,1.1"/>
				</g>
				<line class="st80" x1="76.4" y1="218.7" x2="5" y2="218.7"/>
				
					<ellipse transform="matrix(2.774611e-02 -0.9996 0.9996 2.774611e-02 -38.0699 181.4129)" class="st80" cx="74.2" cy="110.3" rx="33.3" ry="33.3"/>
			</g>
		</g>
	</g>
</g>
<g id="Layer_5">
</g>
<g id="desktop_-_grid">
</g>
<g id="Gutters" class="st88">
</g>
</svg>
