<svg xmlns="http://www.w3.org/2000/svg" xmlns:xlink="http://www.w3.org/1999/xlink" style="enable-background:new 0 0 300 300" x="0" y="0" version="1.1" viewBox="0 0 300 300" xml:space="preserve"><style type="text/css">.st75{fill:none;stroke:#fff;stroke-width:8.535;stroke-linecap:round;stroke-linejoin:round;stroke-miterlimit:10}</style><g id="Layer_4"><g><g><path d="M198,193.5c4.5,8.9,12.7,15,22.4,16.7c1.8,0.3,3.6,0.5,5.4,0.5c7.8,0,15.4-3,21.3-8.5" class="st75"/><path d="M269.8,167.8c-2.9-5.8-8.2-9.7-14.5-10.8c-6.3-1.1-12.7,0.8-17.4,5.2" class="st75"/><path d="M96.8,128.1c-2.7-15.3-7.6-43-7.7-43.4c-0.3-1.6,1.8-6,11.7-11.6c9.8-5.6,23.5-10.1,38.6-12.7 c8.8-1.6,17.4-2.3,25.5-2.3c19.6,0,29.5,4.8,30.1,8c0.1,0.7,9.4,53.3,9.4,53.3c4.9,27.9-13.5,66.2-42,71.2 c-2.2,0.4-4.4,0.6-6.6,0.6c0,0,0,0,0,0c-10.3,0-20.3-3.9-29-10.2" class="st75"/><path d="M184.9,152.8c-7.3-6.8-17-9.7-26.7-8c-9.7,1.7-17.9,7.8-22.4,16.7" class="st75"/><g><path d="M68.3,108.6c-20.8-7.3-41.6-2.9-49.3,4.5c-11.1,10.6-14.1,24.1-3.5,35.2c10.6,11.1,13.1,19.3,4.8,27.2 c-11.1,10.6-11.5,26.8-0.9,37.9c12.4,12.9,24.8,21,36.6,25.1c21.1,7.4,40,2.4,52.5-9.5c33.3-31.8,17.9-70.1-13.9-103.4 C86.6,117.3,77.5,111.8,68.3,108.6z M41.5,139.4c-2.7,2.6-6.5,3.3-9.8,2.1c-1.4-0.5-2.7-1.3-3.7-2.4c-3.7-3.8-3.5-9.9,0.3-13.5 c2.7-2.6,6.5-3.3,9.8-2.1c1.4,0.5,2.7,1.3,3.8,2.4C45.4,129.7,45.3,135.7,41.5,139.4z M46.8,203.2c-3.2,3.1-7.8,3.9-11.8,2.5 c-1.7-0.6-3.2-1.6-4.5-2.9c-4.4-4.6-4.2-11.9,0.4-16.3c3.2-3.1,7.8-3.9,11.8-2.5c1.7,0.6,3.2,1.5,4.5,2.9 C51.5,191.6,51.4,198.9,46.8,203.2z M76.6,142.9c-2.7,2.6-6.5,3.3-9.8,2.1c-1.4-0.5-2.7-1.3-3.8-2.4c-3.7-3.8-3.5-9.9,0.3-13.5 c2.7-2.6,6.5-3.3,9.8-2.1c1.4,0.5,2.7,1.3,3.8,2.4C80.6,133.2,80.5,139.3,76.6,142.9z M94.7,184c2.7-2.6,6.5-3.3,9.8-2.1 c1.4,0.5,2.7,1.3,3.8,2.4c3.7,3.8,3.5,9.9-0.3,13.6c-2.7,2.6-6.5,3.3-9.8,2.1c-1.4-0.5-2.7-1.3-3.7-2.4 C90.7,193.7,90.8,187.7,94.7,184z M94.4,149.1c1.4,0.5,2.7,1.3,3.8,2.4c3.7,3.8,3.5,9.9-0.3,13.5c-2.7,2.6-6.5,3.3-9.8,2.1 c-1.4-0.5-2.7-1.3-3.7-2.4c-3.7-3.8-3.5-9.9,0.3-13.6C87.3,148.7,91.1,148,94.4,149.1z" class="st75"/></g><path d="M202.2,105c11.2-1.1,25.6,0.3,40.4,4c8.7,2.2,16.8,4.9,24.2,8.2c17.9,8,25,16.4,24.2,19.6 c-0.2,0.7-13.1,52.5-13.1,52.5c-6.8,27.4-39.3,55-67.3,48c-2.1-0.5-4.2-1.3-6.3-2.2c0,0,0,0,0,0c-17.7-7.9-28.8-28.2-31.6-48.1" class="st75"/><path d="M224.7,158.5c-2.9-5.8-8.2-9.7-14.5-10.8c-2.7-0.5-5.3-0.4-7.9,0.1" class="st75"/><path d="M154.8,92.6c3,5.7,8.4,9.6,14.7,10.7c6.3,1,12.6-1,17.3-5.5" class="st75"/><path d="M109.5,109.2c5.5,3.4,12.1,3.9,18.1,1.5c6-2.4,10.4-7.4,12-13.6" class="st75"/></g></g></g></svg>