<svg xmlns="http://www.w3.org/2000/svg" xmlns:xlink="http://www.w3.org/1999/xlink" style="enable-background:new 0 0 300 300" x="0" y="0" version="1.1" viewBox="0 0 300 300" xml:space="preserve"><style type="text/css">.st68{fill:none;stroke:#fff;stroke-width:9.9518;stroke-linecap:round;stroke-linejoin:round;stroke-miterlimit:10}</style><g id="Layer_4"><g><g><g><path d="M250.2,288.8c4.3,0,7.7-3.4,7.7-7.7V157.8H281c6.8,0,10.2-8.3,5.5-13.3l-131-131c-3.1-3.1-8-3.1-10.8,0 l-131.3,131c-4.6,4.9-1.2,13.3,5.5,13.3h23.1v123.3c0,4.3,3.4,7.7,7.7,7.7H250.2z" class="st68"/><path d="M66,157.8h61.7v61.7H66V157.8z" class="st68"/><rect width="57.3" height="100.2" x="171.7" y="188.6" class="st68"/><path d="M61.9,232.4h69.9v-12.9H61.9V232.4z" class="st68"/><line x1="96.8" x2="96.8" y1="157.8" y2="219.4" class="st68"/><line x1="127.6" x2="66" y1="188.6" y2="188.6" class="st68"/></g><line x1="10.8" x2="289.2" y1="288.8" y2="288.8" class="st68"/></g></g></g></svg>