<svg xmlns="http://www.w3.org/2000/svg" xmlns:xlink="http://www.w3.org/1999/xlink" style="enable-background:new 0 0 300 300" x="0" y="0" version="1.1" viewBox="0 0 300 300" xml:space="preserve"><style type="text/css">.st81{fill:none;stroke:#fff;stroke-width:8.615;stroke-linecap:round;stroke-linejoin:round;stroke-miterlimit:10}</style><g id="Layer_4"><g><g><g><g><g><rect width="23.4" height="110.3" x="188.5" y="28.8" class="st81" transform="matrix(0.7114 -0.7028 0.7028 0.7114 -1.221 164.9202)"/><rect width="23.4" height="110.3" x="115.5" y="101" class="st81" transform="matrix(0.7115 -0.7027 0.7027 0.7115 -72.9953 134.3979)"/></g><rect width="79.3" height="70.2" x="124" y="84.9" class="st81" transform="matrix(0.7114 -0.7028 0.7028 0.7114 -37.1091 149.6666)"/></g><path d="M283.9,241.8c-6.1,6-15.7,5.8-21.7-0.2l-0.5-0.5l-80.3-89.3l13.7-13.5l88.4,81.3 C290,225.5,290.1,235.6,283.9,241.8z" class="st81"/></g><rect width="141.6" height="17.3" x="11.5" y="246.2" class="st81"/><rect width="106.8" height="17.3" x="28.9" y="229.6" class="st81"/></g></g></g></svg>