<svg xmlns="http://www.w3.org/2000/svg" xmlns:xlink="http://www.w3.org/1999/xlink" style="enable-background:new 0 0 300 300" x="0" y="0" version="1.1" viewBox="0 0 300 300" xml:space="preserve"><style type="text/css">.st74{fill:none;stroke:#fff;stroke-width:9.8416;stroke-linecap:round;stroke-linejoin:round;stroke-miterlimit:10}</style><g id="Layer_4"><g><g><polygon points="137.7 9 163.2 9 184 76.7 116.9 76.7" class="st74"/><polygon points="117.7 189.4 184 189.6 72.5 291 65.3 291" class="st74"/><g><polygon points="184 76.7 242.6 133.2 198.1 133.2 184 133.2" class="st74"/><polygon points="116.9 80.5 116.9 133 102.8 133 58.3 133 116.9 76.7" class="st74"/><rect width="67.1" height="56.5" x="116.9" y="76.7" class="st74"/><line x1="116.9" x2="184" y1="76.7" y2="133.2" class="st74"/><line x1="184" x2="116.9" y1="76.7" y2="133" class="st74"/></g><g><polygon points="184 133 242.6 189.6 198.1 189.6 184 189.6" class="st74"/><polygon points="116.9 136.9 116.9 189.4 102.8 189.4 58.3 189.4 116.9 133" class="st74"/><rect width="67.1" height="56.5" x="116.9" y="133" class="st74"/><line x1="116.9" x2="184" y1="133" y2="189.6" class="st74"/><line x1="184" x2="116.9" y1="133" y2="189.4" class="st74"/></g><polygon points="235.6 291 228.3 291 116.9 189.6 183.1 189.4" class="st74"/><line x1="23.7" x2="276.3" y1="291" y2="291" class="st74"/></g></g></g></svg>