<svg xmlns="http://www.w3.org/2000/svg" xmlns:xlink="http://www.w3.org/1999/xlink" style="enable-background:new 0 0 300 300" x="0" y="0" version="1.1" viewBox="0 0 300 300" xml:space="preserve"><style type="text/css">.st76{fill:none;stroke:#fff;stroke-width:9.8868;stroke-linecap:round;stroke-linejoin:round;stroke-miterlimit:10}</style><g id="Layer_4"><g><g><g><path d="M251.5,245.3c-12.2,18.1-23.5,26.9-34,26.4l-19.5-0.7v19.8l-43.2-51.2l41.3-49.7l-0.8,17.2 c5.8,0,14.7,0,26.4,0c11.7,0.3,20.5,0.4,26.4,0.4c13,0,22.4-1.2,28.3-3.4C268.2,217.8,259.9,231.6,251.5,245.3z" class="st76"/><path d="M249.2,207.9l-8.5-0.4l-34-58.9L263,116c5.8,9.5,11.7,18.7,17.5,27.9c8.1,14,12.2,23.8,12.2,29.4 C292.8,196.6,278.3,207.9,249.2,207.9z" class="st76"/></g><g><path d="M23.6,206.4c-8.7-16-13-27.5-13-34.4c0-5.6,1.4-11.1,4.2-16.4c0.3-0.5,3.5-5.5,9.6-14.9l-17.2-9.9 l65.7-11.8l22.2,60.8l-14.1-9.2c-6.9,11.2-13.8,22.4-20.6,33.6c-10.4,17.6-16.2,30.2-17.2,37.8C36.5,230.2,30,218.4,23.6,206.4z" class="st76"/><path d="M125.8,207.1l0.4,64.9h-55c-6.6,0-12.9-3.5-18.9-10.5c-6-7-9-13.9-9-20.8c0-7.4,6.3-18.6,15.3-33.6H125.8z" class="st76"/></g><g><path d="M109.8,104.3L53.2,71.5l27.5-47.8c4.3-7.4,10.8-11.1,19.5-11.1h66.9c-5.1,3.6-9.3,8.2-12.6,13.8 L109.8,104.3z" class="st76"/><path d="M146.3,41.6c6.6-11.4,11.3-20.1,14.1-23.2c6.2-6.1,14-9.2,23.7-9.2c9.2,0,17,3.6,23.3,10.7 c1.8,2.1,6.4,9.4,13.7,22.2l16.4-10l-21.8,62.7L152,84.1l14.5-7.6L146.3,41.6z" class="st76"/></g><g><path d="M147.9,98.3C147.9,98.3,147.9,98.3,147.9,98.3C147.8,98.3,147.8,98.3,147.9,98.3 C147.8,98.3,147.8,98.3,147.9,98.3c-0.1-0.1-0.2-0.2-0.3-0.2c-0.1-0.1-0.2-0.1-0.2-0.2c-0.1,0-0.1-0.1-0.2-0.1c0,0,0,0,0,0 c-0.1,0-0.3-0.1-0.4-0.1c-0.1,0-0.3-0.1-0.4-0.1c0,0,0,0,0,0c0,0,0,0,0,0c-0.1,0-0.2,0.1-0.4,0.1c-0.1,0-0.3,0-0.4,0.1 c0,0,0,0,0,0c-0.1,0-0.1,0.1-0.2,0.1c-0.1,0-0.2,0.1-0.3,0.2c-0.1,0.1-0.2,0.1-0.3,0.2c0,0,0,0,0,0c0,0,0,0,0,0c0,0,0,0,0,0 c-1.2,1.3-29.4,31-23.6,55c2.4,9.8,10.1,17.2,22.9,21.9l4.5,0c12.8-4.7,20.5-12.1,22.9-21.9C177.3,129.3,149.1,99.6,147.9,98.3z" class="st76"/><line x1="145.9" x2="145.8" y1="119" y2="197.2" class="st76"/><line x1="135.4" x2="146" y1="146.3" y2="158.6" class="st76"/><g><line x1="135.9" x2="146" y1="122.7" y2="134.5" class="st76"/><line x1="156.7" x2="145.8" y1="128.5" y2="136.4" class="st76"/></g><line x1="157" x2="146.1" y1="151.9" y2="159.9" class="st76"/></g></g></g></g></svg>