<svg xmlns="http://www.w3.org/2000/svg" xmlns:xlink="http://www.w3.org/1999/xlink" style="enable-background:new 0 0 300 300" x="0" y="0" version="1.1" viewBox="0 0 300 300" xml:space="preserve"><style type="text/css">.st73{fill:none;stroke:#fff;stroke-width:11.1938;stroke-linecap:round;stroke-linejoin:round;stroke-miterlimit:10}</style><g id="Layer_4"><g><g><g><path d="M42.4,42.9v140.9c0,19,11,37.8,34.7,59c18.7,16.8,43.6,33.1,67.7,49c1.7,1.1,3.4,2.2,5.1,3.4 c1.7-1.1,3.4-2.2,5.1-3.3c24.1-15.9,49-32.2,67.8-49c23.7-21.2,34.7-40,34.7-59V42.9C245.9,33.2,206.9,4.8,150,4.8 C93.2,4.8,54.2,33.2,42.4,42.9z" class="st73"/></g><path d="M187,138.8c-3.2,3.2-4.7,7.7-4,12.1l6.3,36.8l-33-17.4c-2-1.1-4.2-1.6-6.4-1.6c-2.2,0-4.4,0.5-6.4,1.6 l-33,17.4l6.3-36.8c0.8-4.5-0.7-9-3.9-12.1l-26.7-26l36.9-5.4c4.5-0.6,8.3-3.5,10.3-7.5L150,66.4l16.5,33.4c2,4,5.9,6.9,10.3,7.5 l36.9,5.4L187,138.8z" class="st73"/></g></g></g></svg>