<svg xmlns="http://www.w3.org/2000/svg" xmlns:xlink="http://www.w3.org/1999/xlink" style="enable-background:new 0 0 300 300" x="0" y="0" version="1.1" viewBox="0 0 300 300" xml:space="preserve"><style type="text/css">.st79{fill:none;stroke:#fff;stroke-width:9.9769;stroke-linecap:round;stroke-linejoin:round;stroke-miterlimit:10}</style><g id="Layer_4"><g><g><path d="M203.6,70.7v-28c0-4.2-3.4-7.6-7.6-7.6h-91.4c-4.2,0-7.6,3.4-7.6,7.6v28" class="st79"/><path d="M23.4,264.8c-4.3,0-7.7-3.5-7.7-7.7V78.5c0-4.3,3.5-7.7,7.7-7.7h23.8v194L23.4,264.8L23.4,264.8z" class="st79"/><polygon points="47.2 264.8 47.2 70.7 78.5 70.7 104.7 70.7 195.9 70.7 222.1 70.7 252.8 70.7 252.8 264.8 60.3 264.8" class="st79"/><path d="M284.3,257.1c0,4.3-3.5,7.7-7.7,7.7h-23.8v-194h23.8c4.3,0,7.7,3.5,7.7,7.7V257.1z" class="st79"/></g></g></g></svg>