<svg xmlns="http://www.w3.org/2000/svg" xmlns:xlink="http://www.w3.org/1999/xlink" style="enable-background:new 0 0 300 300" x="0" y="0" version="1.1" viewBox="0 0 300 300" xml:space="preserve"><style type="text/css">.st69{fill:none;stroke:#fff;stroke-width:9.8213;stroke-linecap:round;stroke-linejoin:round;stroke-miterlimit:10}</style><g id="Layer_4"><g><g><path d="M124.8,40.1c0-1.8,1.5-3.2,3.2-3.2h13.5V23.4c0-1.8,1.5-3.2,3.2-3.2h10.8c1.8,0,3.2,1.5,3.2,3.2v13.5h13.5 c1.8,0,3.2,1.5,3.2,3.2V51c0,1.8-1.5,3.2-3.2,3.2h-13.5v13.5c0,1.8-1.5,3.2-3.2,3.2h-10.8c-1.8,0-3.2-1.5-3.2-3.2V54.2H128 c-1.8,0-3.2-1.5-3.2-3.2V40.1z" class="st69"/><polyline points="145.1 279.8 97.4 279.8 97.4 83.3 202.9 83.3 202.9 279.8 202.3 279.8 174.1 279.8" class="st69"/><rect width="41.2" height="42.2" x="129.6" y="237.6" class="st69"/><line x1="150.2" x2="150.2" y1="237.6" y2="279.8" class="st69"/><rect width="25.7" height="25.7" x="117.7" y="108.7" class="st69"/><rect width="25.7" height="25.7" x="156.6" y="108.7" class="st69"/><rect width="25.7" height="25.7" x="117.7" y="146" class="st69"/><rect width="25.7" height="25.7" x="156.6" y="146" class="st69"/><rect width="25.7" height="25.7" x="117.7" y="181.6" class="st69"/><rect width="25.7" height="25.7" x="156.6" y="181.6" class="st69"/><g><polyline points="218.9 279.8 202.9 279.8 202.9 122.1 261.5 122.1 261.5 279.8 261.1 279.8 218.9 279.8" class="st69"/><rect width="25.7" height="25.7" x="219.3" y="146" class="st69"/><rect width="25.7" height="25.7" x="219.3" y="181.6" class="st69"/><rect width="25.7" height="25.7" x="219.3" y="217" class="st69"/></g><g><polyline points="54 279.8 38 279.8 38 122.1 96.6 122.1 96.6 279.8 96.3 279.8 54 279.8" class="st69"/><rect width="25.7" height="25.7" x="54.5" y="146" class="st69"/><rect width="25.7" height="25.7" x="54.5" y="181.6" class="st69"/><rect width="25.7" height="25.7" x="54.5" y="217" class="st69"/></g><line x1="12.6" x2="287.4" y1="279.8" y2="279.8" class="st69"/></g></g></g></svg>