<?xml version="1.0" encoding="utf-8"?>
<!-- Generator: Adobe Illustrator 22.0.0, SVG Export Plug-In . SVG Version: 6.00 Build 0)  -->
<svg version="1.1" xmlns="http://www.w3.org/2000/svg" xmlns:xlink="http://www.w3.org/1999/xlink" x="0px" y="0px"
	 viewBox="0 0 300 300" style="enable-background:new 0 0 300 300;" xml:space="preserve">
<style type="text/css">
	.st0{fill:none;stroke:#FFFFFF;stroke-width:3;stroke-miterlimit:10;stroke-dasharray:8;}
	.st1{fill:#EDEDEE;}
	.st2{fill:#FFFFFF;}
	.st3{fill:#FF6064;}
	.st4{fill:#653FE0;}
	.st5{fill:none;stroke:#FFFFFF;stroke-width:2.5;stroke-linecap:round;stroke-linejoin:round;stroke-miterlimit:10;}
	.st6{fill:#FC7F10;}
	.st7{fill:#F13F42;}
	.st8{fill:#FDA20C;}
	.st9{fill:#009EFA;}
	.st10{fill:#FCB810;}
	.st11{fill:#0087FE;}
	.st12{fill:#9CCC39;}
	.st13{fill:#8465E6;}
	.st14{fill:#80B924;}
	.st15{fill:#8E9093;}
	.st16{fill:#EC5657;}
	.st17{fill:#231F20;}
	.st18{opacity:0.2;}
	.st19{fill:none;stroke:#FFFFFF;stroke-width:2;stroke-miterlimit:10;}
	.st20{opacity:0.8;fill:none;stroke:#A2A4A7;stroke-width:2;stroke-miterlimit:10;}
	.st21{opacity:0.7;}
	.st22{fill:#71C2ED;}
	.st23{fill:#EF5E41;}
	.st24{fill:#8D53E8;}
	.st25{fill:#A66CEF;}
	.st26{fill:#E5E7E8;}
	.st27{fill:#00A1A9;}
	.st28{fill:#5A5A5D;}
	.st29{fill:#59595C;}
	.st30{fill:none;stroke:#FFFFFF;stroke-miterlimit:10;}
	.st31{fill:#808080;}
	.st32{fill:#2E2E2F;}
	.st33{fill:#2E2E2F;stroke:#4D4D4D;stroke-width:0.75;stroke-miterlimit:10;}
	.st34{fill:#E0D9F9;}
	.st35{fill:#404041;}
	.st36{fill:#404041;stroke:#FFFFFF;stroke-width:2;stroke-linejoin:round;stroke-miterlimit:10;}
	.st37{fill:none;stroke:#FFFFFF;stroke-width:2;stroke-linecap:round;stroke-linejoin:round;}
	.st38{fill:none;stroke:#FFFFFF;stroke-width:2;stroke-linecap:round;stroke-linejoin:round;stroke-dasharray:2.9493,2.9493;}
	.st39{fill:none;stroke:#FFFFFF;stroke-width:2;stroke-linecap:round;stroke-linejoin:round;stroke-dasharray:3.1622,3.1622;}
	.st40{fill:none;stroke:#FFFFFF;stroke-width:2;stroke-linecap:round;stroke-linejoin:round;stroke-dasharray:2.7981,2.7981;}
	.st41{fill:#A3A5B3;}
	.st42{fill:none;stroke:#6D6E70;stroke-width:0.5;stroke-miterlimit:10;}
	.st43{fill:none;stroke:#FFFFFF;stroke-width:2.5;stroke-miterlimit:10;}
	.st44{fill:#22B373;stroke:#FFFFFF;stroke-width:2.5;stroke-miterlimit:10;}
	.st45{fill:#22B373;stroke:#FFFFFF;stroke-width:2.5;stroke-linecap:round;stroke-miterlimit:10;}
	.st46{fill:none;}
	.st47{fill:none;stroke:#FFFFFF;stroke-width:3;stroke-miterlimit:10;}
	.st48{fill:none;stroke:#FFFFFF;stroke-width:3;stroke-miterlimit:10;stroke-dasharray:3.1802,3.1802;}
	.st49{fill:none;stroke:#FFFFFF;stroke-width:3;stroke-miterlimit:10;stroke-dasharray:3.1983,3.1983;}
	.st50{fill:none;stroke:#FFFFFF;stroke-width:3;stroke-miterlimit:10;stroke-dasharray:3.0388,3.0388;}
	.st51{fill:none;stroke:#FFFFFF;stroke-width:2.5;stroke-linejoin:round;stroke-miterlimit:10;}
	.st52{fill:none;stroke:#FFFFFF;stroke-width:3;stroke-miterlimit:10;stroke-dasharray:2.8444,2.8444;}
	.st53{fill:#58595B;}
	.st54{fill:#C5CED6;}
	.st55{fill:#3D3D3F;}
	.st56{fill:#7C828B;}
	.st57{fill:#FFFFFF;stroke:#FFFFFF;stroke-miterlimit:10;}
	.st58{fill:#B0B2B3;}
	.st59{clip-path:url(#SVGID_2_);}
	.st60{fill:#333333;stroke:#FFFFFF;stroke-width:6;stroke-linejoin:round;stroke-miterlimit:10;}
	.st61{fill:#333333;}
	.st62{opacity:0.59;}
	.st63{opacity:0.25;}
	.st64{opacity:0.74;}
	.st65{fill:#606060;}
	.st66{fill:#F28E1E;}
	.st67{fill:none;stroke:#FFFFFF;stroke-width:11.8137;stroke-linecap:round;stroke-linejoin:round;stroke-miterlimit:10;}
	.st68{fill:none;stroke:#FFFFFF;stroke-width:9.9518;stroke-linecap:round;stroke-linejoin:round;stroke-miterlimit:10;}
	.st69{fill:none;stroke:#FFFFFF;stroke-width:9.8213;stroke-linecap:round;stroke-linejoin:round;stroke-miterlimit:10;}
	.st70{fill:none;stroke:#FFFFFF;stroke-width:11.0802;stroke-linecap:round;stroke-linejoin:round;stroke-miterlimit:10;}
	.st71{fill:none;stroke:#FFFFFF;stroke-width:11.301;stroke-linecap:round;stroke-linejoin:round;stroke-miterlimit:10;}
	.st72{fill:none;stroke:#FFFFFF;stroke-width:10.0586;stroke-linecap:round;stroke-linejoin:round;stroke-miterlimit:10;}
	.st73{fill:none;stroke:#FFFFFF;stroke-width:11.1938;stroke-linecap:round;stroke-linejoin:round;stroke-miterlimit:10;}
	.st74{fill:none;stroke:#FFFFFF;stroke-width:9.8416;stroke-linecap:round;stroke-linejoin:round;stroke-miterlimit:10;}
	.st75{fill:none;stroke:#FFFFFF;stroke-width:8.535;stroke-linecap:round;stroke-linejoin:round;stroke-miterlimit:10;}
	.st76{fill:none;stroke:#FFFFFF;stroke-width:9.8868;stroke-linecap:round;stroke-linejoin:round;stroke-miterlimit:10;}
	.st77{fill:none;stroke:#FFFFFF;stroke-width:9.1425;stroke-linecap:round;stroke-linejoin:round;stroke-miterlimit:10;}
	.st78{fill:none;stroke:#FFFFFF;stroke-width:8.8888;stroke-linecap:round;stroke-linejoin:round;stroke-miterlimit:10;}
	.st79{fill:none;stroke:#FFFFFF;stroke-width:9.9769;stroke-linecap:round;stroke-linejoin:round;stroke-miterlimit:10;}
	.st80{fill:none;stroke:#FFFFFF;stroke-width:8.7375;stroke-linecap:round;stroke-linejoin:round;stroke-miterlimit:10;}
	.st81{fill:none;stroke:#FFFFFF;stroke-width:8.615;stroke-linecap:round;stroke-linejoin:round;stroke-miterlimit:10;}
	.st82{fill:none;stroke:#FFFFFF;stroke-width:1.5;stroke-miterlimit:10;}
	.st83{fill:none;stroke:#FFFFFF;stroke-width:1.5;stroke-miterlimit:10;stroke-dasharray:8;}
	.st84{fill:#33B4BA;}
	.st85{fill:#FFFFFF;stroke:#33B4BA;stroke-width:0.75;stroke-miterlimit:10;}
	.st86{fill:#FFFFFF;stroke:#33B4BA;stroke-width:2;stroke-miterlimit:10;}
	.st87{clip-path:url(#SVGID_4_);}
	.st88{display:none;}
	.st89{display:inline;}
	.st90{opacity:0.1;fill:#26A5DC;}
	.st91{display:inline;fill:#33B4BA;}
	.st92{display:inline;fill:#FFFFFF;stroke:#33B4BA;stroke-width:0.75;stroke-miterlimit:10;}
</style>
<g id="_x3C_Guides_x3E__6_">
</g>
<g id="Layer_4">
	<g>
		<g>
			<g>
				<path class="st76" d="M251.5,245.3c-12.2,18.1-23.5,26.9-34,26.4l-19.5-0.7v19.8l-43.2-51.2l41.3-49.7l-0.8,17.2
					c5.8,0,14.7,0,26.4,0c11.7,0.3,20.5,0.4,26.4,0.4c13,0,22.4-1.2,28.3-3.4C268.2,217.8,259.9,231.6,251.5,245.3z"/>
				<path class="st76" d="M249.2,207.9l-8.5-0.4l-34-58.9L263,116c5.8,9.5,11.7,18.7,17.5,27.9c8.1,14,12.2,23.8,12.2,29.4
					C292.8,196.6,278.3,207.9,249.2,207.9z"/>
			</g>
			<g>
				<path class="st76" d="M23.6,206.4c-8.7-16-13-27.5-13-34.4c0-5.6,1.4-11.1,4.2-16.4c0.3-0.5,3.5-5.5,9.6-14.9l-17.2-9.9
					l65.7-11.8l22.2,60.8l-14.1-9.2c-6.9,11.2-13.8,22.4-20.6,33.6c-10.4,17.6-16.2,30.2-17.2,37.8C36.5,230.2,30,218.4,23.6,206.4z
					"/>
				<path class="st76" d="M125.8,207.1l0.4,64.9h-55c-6.6,0-12.9-3.5-18.9-10.5c-6-7-9-13.9-9-20.8c0-7.4,6.3-18.6,15.3-33.6H125.8z
					"/>
			</g>
			<g>
				<path class="st76" d="M109.8,104.3L53.2,71.5l27.5-47.8c4.3-7.4,10.8-11.1,19.5-11.1h66.9c-5.1,3.6-9.3,8.2-12.6,13.8
					L109.8,104.3z"/>
				<path class="st76" d="M146.3,41.6c6.6-11.4,11.3-20.1,14.1-23.2c6.2-6.1,14-9.2,23.7-9.2c9.2,0,17,3.6,23.3,10.7
					c1.8,2.1,6.4,9.4,13.7,22.2l16.4-10l-21.8,62.7L152,84.1l14.5-7.6L146.3,41.6z"/>
			</g>
			<g>
				<path class="st76" d="M147.9,98.3C147.9,98.3,147.9,98.3,147.9,98.3C147.8,98.3,147.8,98.3,147.9,98.3
					C147.8,98.3,147.8,98.3,147.9,98.3c-0.1-0.1-0.2-0.2-0.3-0.2c-0.1-0.1-0.2-0.1-0.2-0.2c-0.1,0-0.1-0.1-0.2-0.1c0,0,0,0,0,0
					c-0.1,0-0.3-0.1-0.4-0.1c-0.1,0-0.3-0.1-0.4-0.1c0,0,0,0,0,0c0,0,0,0,0,0c-0.1,0-0.2,0.1-0.4,0.1c-0.1,0-0.3,0-0.4,0.1
					c0,0,0,0,0,0c-0.1,0-0.1,0.1-0.2,0.1c-0.1,0-0.2,0.1-0.3,0.2c-0.1,0.1-0.2,0.1-0.3,0.2c0,0,0,0,0,0c0,0,0,0,0,0c0,0,0,0,0,0
					c-1.2,1.3-29.4,31-23.6,55c2.4,9.8,10.1,17.2,22.9,21.9l4.5,0c12.8-4.7,20.5-12.1,22.9-21.9C177.3,129.3,149.1,99.6,147.9,98.3z
					"/>
				<line class="st76" x1="145.9" y1="119" x2="145.8" y2="197.2"/>
				<line class="st76" x1="135.4" y1="146.3" x2="146" y2="158.6"/>
				<g>
					<line class="st76" x1="135.9" y1="122.7" x2="146" y2="134.5"/>
					<line class="st76" x1="156.7" y1="128.5" x2="145.8" y2="136.4"/>
				</g>
				<line class="st76" x1="157" y1="151.9" x2="146.1" y2="159.9"/>
			</g>
		</g>
	</g>
</g>
<g id="Layer_5">
</g>
<g id="desktop_-_grid">
</g>
<g id="Gutters" class="st88">
</g>
</svg>
