<?xml version="1.0" encoding="utf-8"?>
<!-- Generator: Adobe Illustrator 22.0.0, SVG Export Plug-In . SVG Version: 6.00 Build 0)  -->
<svg version="1.1" xmlns="http://www.w3.org/2000/svg" xmlns:xlink="http://www.w3.org/1999/xlink" x="0px" y="0px"
	 viewBox="0 0 300 300" style="enable-background:new 0 0 300 300;" xml:space="preserve">
<style type="text/css">
	.st0{fill:none;stroke:#FFFFFF;stroke-width:3;stroke-miterlimit:10;stroke-dasharray:8;}
	.st1{fill:#EDEDEE;}
	.st2{fill:#FFFFFF;}
	.st3{fill:#FF6064;}
	.st4{fill:#653FE0;}
	.st5{fill:none;stroke:#FFFFFF;stroke-width:2.5;stroke-linecap:round;stroke-linejoin:round;stroke-miterlimit:10;}
	.st6{fill:#FC7F10;}
	.st7{fill:#F13F42;}
	.st8{fill:#FDA20C;}
	.st9{fill:#009EFA;}
	.st10{fill:#FCB810;}
	.st11{fill:#0087FE;}
	.st12{fill:#9CCC39;}
	.st13{fill:#8465E6;}
	.st14{fill:#80B924;}
	.st15{fill:#8E9093;}
	.st16{fill:#EC5657;}
	.st17{fill:#231F20;}
	.st18{opacity:0.2;}
	.st19{fill:none;stroke:#FFFFFF;stroke-width:2;stroke-miterlimit:10;}
	.st20{opacity:0.8;fill:none;stroke:#A2A4A7;stroke-width:2;stroke-miterlimit:10;}
	.st21{opacity:0.7;}
	.st22{fill:#71C2ED;}
	.st23{fill:#EF5E41;}
	.st24{fill:#8D53E8;}
	.st25{fill:#A66CEF;}
	.st26{fill:#E5E7E8;}
	.st27{fill:#00A1A9;}
	.st28{fill:#5A5A5D;}
	.st29{fill:#59595C;}
	.st30{fill:none;stroke:#FFFFFF;stroke-miterlimit:10;}
	.st31{fill:#808080;}
	.st32{fill:#2E2E2F;}
	.st33{fill:#2E2E2F;stroke:#4D4D4D;stroke-width:0.75;stroke-miterlimit:10;}
	.st34{fill:#E0D9F9;}
	.st35{fill:#404041;}
	.st36{fill:#404041;stroke:#FFFFFF;stroke-width:2;stroke-linejoin:round;stroke-miterlimit:10;}
	.st37{fill:none;stroke:#FFFFFF;stroke-width:2;stroke-linecap:round;stroke-linejoin:round;}
	.st38{fill:none;stroke:#FFFFFF;stroke-width:2;stroke-linecap:round;stroke-linejoin:round;stroke-dasharray:2.9493,2.9493;}
	.st39{fill:none;stroke:#FFFFFF;stroke-width:2;stroke-linecap:round;stroke-linejoin:round;stroke-dasharray:3.1622,3.1622;}
	.st40{fill:none;stroke:#FFFFFF;stroke-width:2;stroke-linecap:round;stroke-linejoin:round;stroke-dasharray:2.7981,2.7981;}
	.st41{fill:#A3A5B3;}
	.st42{fill:none;stroke:#6D6E70;stroke-width:0.5;stroke-miterlimit:10;}
	.st43{fill:none;stroke:#FFFFFF;stroke-width:2.5;stroke-miterlimit:10;}
	.st44{fill:#22B373;stroke:#FFFFFF;stroke-width:2.5;stroke-miterlimit:10;}
	.st45{fill:#22B373;stroke:#FFFFFF;stroke-width:2.5;stroke-linecap:round;stroke-miterlimit:10;}
	.st46{fill:none;}
	.st47{fill:none;stroke:#FFFFFF;stroke-width:3;stroke-miterlimit:10;}
	.st48{fill:none;stroke:#FFFFFF;stroke-width:3;stroke-miterlimit:10;stroke-dasharray:3.1802,3.1802;}
	.st49{fill:none;stroke:#FFFFFF;stroke-width:3;stroke-miterlimit:10;stroke-dasharray:3.1983,3.1983;}
	.st50{fill:none;stroke:#FFFFFF;stroke-width:3;stroke-miterlimit:10;stroke-dasharray:3.0388,3.0388;}
	.st51{fill:none;stroke:#FFFFFF;stroke-width:2.5;stroke-linejoin:round;stroke-miterlimit:10;}
	.st52{fill:none;stroke:#FFFFFF;stroke-width:3;stroke-miterlimit:10;stroke-dasharray:2.8444,2.8444;}
	.st53{fill:#58595B;}
	.st54{fill:#C5CED6;}
	.st55{fill:#3D3D3F;}
	.st56{fill:#7C828B;}
	.st57{fill:#FFFFFF;stroke:#FFFFFF;stroke-miterlimit:10;}
	.st58{fill:#B0B2B3;}
	.st59{clip-path:url(#SVGID_2_);}
	.st60{fill:#333333;stroke:#FFFFFF;stroke-width:6;stroke-linejoin:round;stroke-miterlimit:10;}
	.st61{fill:#333333;}
	.st62{opacity:0.59;}
	.st63{opacity:0.25;}
	.st64{opacity:0.74;}
	.st65{fill:#606060;}
	.st66{fill:#F28E1E;}
	.st67{fill:none;stroke:#FFFFFF;stroke-width:11.8137;stroke-linecap:round;stroke-linejoin:round;stroke-miterlimit:10;}
	.st68{fill:none;stroke:#FFFFFF;stroke-width:9.9518;stroke-linecap:round;stroke-linejoin:round;stroke-miterlimit:10;}
	.st69{fill:none;stroke:#FFFFFF;stroke-width:9.8213;stroke-linecap:round;stroke-linejoin:round;stroke-miterlimit:10;}
	.st70{fill:none;stroke:#FFFFFF;stroke-width:11.0802;stroke-linecap:round;stroke-linejoin:round;stroke-miterlimit:10;}
	.st71{fill:none;stroke:#FFFFFF;stroke-width:11.301;stroke-linecap:round;stroke-linejoin:round;stroke-miterlimit:10;}
	.st72{fill:none;stroke:#FFFFFF;stroke-width:10.0586;stroke-linecap:round;stroke-linejoin:round;stroke-miterlimit:10;}
	.st73{font-family:'Aileron-Bold';}
	.st74{font-size:45.9448px;}
	.st75{fill:none;stroke:#FFFFFF;stroke-width:11.1938;stroke-linecap:round;stroke-linejoin:round;stroke-miterlimit:10;}
	.st76{fill:none;stroke:#FFFFFF;stroke-width:9.8416;stroke-linecap:round;stroke-linejoin:round;stroke-miterlimit:10;}
	.st77{fill:none;stroke:#FFFFFF;stroke-width:8.535;stroke-linecap:round;stroke-linejoin:round;stroke-miterlimit:10;}
	.st78{fill:none;stroke:#FFFFFF;stroke-width:9.8868;stroke-linecap:round;stroke-linejoin:round;stroke-miterlimit:10;}
	.st79{fill:none;stroke:#FFFFFF;stroke-width:9.1425;stroke-linecap:round;stroke-linejoin:round;stroke-miterlimit:10;}
	.st80{fill:none;stroke:#FFFFFF;stroke-width:8.8888;stroke-linecap:round;stroke-linejoin:round;stroke-miterlimit:10;}
	.st81{fill:none;stroke:#FFFFFF;stroke-width:9.9769;stroke-linecap:round;stroke-linejoin:round;stroke-miterlimit:10;}
	.st82{fill:none;stroke:#FFFFFF;stroke-width:8.7375;stroke-linecap:round;stroke-linejoin:round;stroke-miterlimit:10;}
	.st83{fill:none;stroke:#FFFFFF;stroke-width:8.615;stroke-linecap:round;stroke-linejoin:round;stroke-miterlimit:10;}
	.st84{fill:none;stroke:#FFFFFF;stroke-width:1.5;stroke-miterlimit:10;}
	.st85{fill:none;stroke:#FFFFFF;stroke-width:1.5;stroke-miterlimit:10;stroke-dasharray:8;}
	.st86{fill:#33B4BA;}
	.st87{fill:#FFFFFF;stroke:#33B4BA;stroke-width:0.75;stroke-miterlimit:10;}
	.st88{fill:#FFFFFF;stroke:#33B4BA;stroke-width:2;stroke-miterlimit:10;}
	.st89{clip-path:url(#SVGID_4_);}
	.st90{display:none;}
	.st91{display:inline;}
	.st92{opacity:0.1;fill:#26A5DC;}
	.st93{display:inline;fill:#33B4BA;}
	.st94{display:inline;fill:#FFFFFF;stroke:#33B4BA;stroke-width:0.75;stroke-miterlimit:10;}
</style>
<g id="_x3C_Guides_x3E__6_">
</g>
<g id="Layer_4">
	<g>
		<g>
			<path class="st72" d="M181.8,60.9c14.1,3.8,26.6,10.2,38.8,18.9c18.6,12.7,32.2,32.3,38.2,55c0,0,0,0,0,0.5
				c0.2,0.4,0.3,0.8,0.6,1.2c0.6,1.1,1.5,2,2.5,2.6l1,0.4h1.3h19.9c3.4,0,6.2,2.9,6.2,6.6v32.6c0,3.6-2.8,6.6-6.2,6.6h-24.6
				c-0.3,0-0.6,0-0.9,0c-0.4-0.1-0.9-0.1-1.4,0c-0.7,0.4-1.3,0.8-2,1.3c-0.3,0.4-0.6,0.8-0.8,1.2c-0.2,0.2-0.4,0.5-0.6,0.8
				c-8.4,17.9-21.5,32.9-37.6,43.1l0,0c-0.4,0.3-0.7,0.6-1,1c-0.3,0.2-0.5,0.5-0.7,0.8c-0.3,0.8-0.6,1.5-0.9,2.3c0,0.4,0,0.7,0,1.1
				c-0.1,0.5-0.1,1,0,1.4l0,0l4.1,20.4c0.5,2.5,0,5-1.3,7.1c-0.7,1.5-1.9,2.6-3.4,3l-14.1,3.6c-3.6,0.7-7.1-1.8-7.7-5.7l-3.4-13.6
				l0,0c-0.1-0.3-0.3-0.7-0.5-1c-0.2-0.5-0.4-0.9-0.6-1.3c-0.2-0.2-0.4-0.5-0.7-0.7c-0.3-0.4-0.7-0.7-1.1-1h-0.7
				c-0.5-0.2-1-0.4-1.5-0.5h-0.9c-0.5-0.1-1-0.1-1.5,0c-24.3,6.4-49.7,5.9-73.8-1.4h-0.7h-1.2h-1.2l-1,0.3l-1.1,0.7l-0.9,0.7
				c-0.3,0.3-0.6,0.7-0.8,1.1c-0.1,0.2-0.3,0.3-0.4,0.5l-9.1,19.1c-0.8,1.6-2.2,2.7-3.9,3.2c-1.7,0.5-3.4,0.2-4.9-0.7l-12.7-7.8
				c-3.3-2.1-4.7-6.5-3.2-10.3l8.2-15.2c0.1-0.3,0.2-0.7,0.3-1.1c0.2-0.4,0.3-0.8,0.4-1.2c0-0.4,0-0.8,0-1.2c0-0.8-0.2-1.7-0.6-2.4
				c-0.1-0.4-0.3-0.8-0.5-1.1c-0.3-0.3-0.5-0.6-0.9-0.9c-0.2-0.3-0.5-0.5-0.7-0.8c-26.2-18.7-41.3-46-41.3-75.2
				c0-10,1.7-19.9,5.2-29.1l0,0v-0.5c6.2-15.5,16-29.1,28.5-39.4C77.4,74.6,91.4,66.9,107.5,62"/>
			<g>
				<path class="st72" d="M182.1,66.9c0-22-16.7-39.9-37.3-39.9c-20.6,0-37.3,17.9-37.3,39.9c0,10.8,4,20.6,10.5,27.8h53.5
					C178.1,87.5,182.1,77.7,182.1,66.9z"/>
			</g>
			<path class="st72" d="M227.3,84.9c-8.4-6.8-18.1-13.8-39.1-21.9L221,44.2L227.3,84.9z"/>
			<path class="st2" d="M232.3,128.3c4.7,0,8.5,4.1,8.5,9.1s-3.8,9.1-8.5,9.1s-8.5-4.1-8.5-9.1S227.6,128.3,232.3,128.3z"/>
			<path class="st72" d="M33.1,133.9c-14.8-1.2-24.4-14.9-23.3-30.7c0.5-7.6,3.9-14.6,9.2-19.6"/>
			<text transform="matrix(0.9349 0 0 1 128.332 81.8042)" class="st2 st73 st74">Q</text>
			<line class="st72" x1="101.4" y1="94.7" x2="188.2" y2="94.7"/>
		</g>
	</g>
</g>
<g id="Layer_5">
</g>
<g id="desktop_-_grid">
</g>
<g id="Gutters" class="st90">
</g>
</svg>
