<svg xmlns="http://www.w3.org/2000/svg" xmlns:xlink="http://www.w3.org/1999/xlink" style="enable-background:new 0 0 300 300" x="0" y="0" version="1.1" viewBox="0 0 300 300" xml:space="preserve"><style type="text/css">.st80{fill:none;stroke:#fff;stroke-width:8.7375;stroke-linecap:round;stroke-linejoin:round;stroke-miterlimit:10}</style><g id="Layer_4"><g><g><g><g><line x1="264.4" x2="264.4" y1="184.2" y2="218.7" class="st80"/><polyline points="220.1 218.7 264.4 218.7 264.4 184.2" class="st80"/><path d="M295,218.7c-2.3-25-7.8-40.8-14.6-51.2c-4.5-6.9-9.9-11.3-14.8-13.8c-4.9-2.5-9.2-3-11.7-3 c-0.9,0-1.5,0.1-2,0.1c0,0,0,0,0,0H238h-22h-9h-4.9c0,0,0,0,0,0h0c-0.4-0.1-1.1-0.1-2-0.1c-2.5,0-6.8,0.5-11.7,3 c-2.2,1.1-2.2,1.1-2.2,1.1" class="st80"/></g><line x1="223.6" x2="295" y1="218.7" y2="218.7" class="st80"/><ellipse cx="225.8" cy="110.3" class="st80" rx="33.3" ry="33.3" transform="matrix(0.9997 -2.497725e-02 2.497725e-02 0.9997 -2.684 5.6737)"/></g><g><line x1="188.6" x2="188.6" y1="188.4" y2="223" class="st80"/><polyline points="113.8 188.4 113.8 223 188.6 223 188.6 188.4" class="st80"/><path d="M219.2,223c-2.3-25-7.8-40.8-14.6-51.2c-4.5-6.9-9.9-11.3-14.8-13.8c-4.9-2.5-9.2-3-11.7-3 c-0.9,0-1.5,0.1-2,0.1c0,0,0,0,0,0h-13.9h-22h-9h-4.9c0,0,0,0,0,0h0c-0.4,0-1.1-0.1-1.9-0.1c-2.5,0-6.8,0.5-11.7,3 c-2.3,1.1-4.5,2.6-6.8,4.6c-5.2,4.5-10.3,11.5-14.2,21.4c-3.5,8.9-6.3,20.3-8,35.1c-0.1,1.3-0.3,2.5-0.4,3.8" class="st80"/><line x1="113.8" x2="113.8" y1="223" y2="188.4" class="st80"/></g><line x1="83.2" x2="219.2" y1="223" y2="223" class="st80"/><path d="M183.3,114.6c0,18.4-14.9,33.3-33.3,33.3c-18.4,0-33.3-14.9-33.3-33.3c0-18.4,14.9-33.3,33.3-33.3 C168.3,81.3,183.3,96.2,183.3,114.6z" class="st80"/><g><g><line x1="35.6" x2="35.6" y1="184.2" y2="218.7" class="st80"/><polyline points="79.9 218.7 35.6 218.7 35.6 184.2" class="st80"/><path d="M5,218.7c2.3-25,7.8-40.8,14.6-51.2c4.5-6.9,9.9-11.3,14.8-13.8c4.9-2.5,9.2-3,11.7-3 c0.9,0,1.5,0.1,2,0.1c0,0,0,0,0,0H62h22h9h4.9c0,0,0,0,0,0h0c0.4-0.1,1.1-0.1,2-0.1c2.5,0,6.8,0.5,11.7,3 c2.2,1.1,2.2,1.1,2.2,1.1" class="st80"/></g><line x1="76.4" x2="5" y1="218.7" y2="218.7" class="st80"/><ellipse cx="74.2" cy="110.3" class="st80" rx="33.3" ry="33.3" transform="matrix(2.774611e-02 -0.9996 0.9996 2.774611e-02 -38.0699 181.4129)"/></g></g></g></g></svg>