<svg xmlns="http://www.w3.org/2000/svg" xmlns:xlink="http://www.w3.org/1999/xlink" style="enable-background:new 0 0 300 300" x="0" y="0" version="1.1" viewBox="0 0 300 300" xml:space="preserve"><style type="text/css">.st77{fill:none;stroke:#fff;stroke-width:9.1425;stroke-linecap:round;stroke-linejoin:round;stroke-miterlimit:10}</style><g id="Layer_4"><g><g><polygon points="62.4 58.1 110.5 177.2 14.3 177.2" class="st77"/><path d="M62.4,203.7c-20.6,0-38.9-16.4-48.1-26.3h95.8C101.3,187.3,83,203.7,62.4,203.7z" class="st77"/><polygon points="285.7 177.2 189.9 177.2 238 58.1" class="st77"/><path d="M238,203.7c-20.6,0-38.9-16.4-48.1-26.3h95.8C276.5,187.3,258.2,203.7,238,203.7z" class="st77"/><line x1="25.2" x2="272" y1="55.6" y2="55.6" class="st77"/><line x1="149.8" x2="149.8" y1="36.8" y2="237.8" class="st77"/><rect width="106" height="13" x="96.5" y="250.2" class="st77"/><rect width="79.9" height="13" x="109.5" y="237.8" class="st77"/></g></g></g></svg>