<svg xmlns="http://www.w3.org/2000/svg" xmlns:xlink="http://www.w3.org/1999/xlink" style="enable-background:new 0 0 300 300" x="0" y="0" version="1.1" viewBox="0 0 300 300" xml:space="preserve"><style type="text/css">.st78{fill:none;stroke:#fff;stroke-width:8.8888;stroke-linecap:round;stroke-linejoin:round;stroke-miterlimit:10}</style><g id="Layer_4"><g><g><g><g><g><polyline points="151.1 4.4 33.1 4.4 33.1 251.8 165.4 251.8" class="st78"/><line x1="224.5" x2="224.6" y1="168.5" y2="77.9" class="st78"/><polygon points="224.5 77.9 151.1 77.9 151.1 4.5" class="st78"/></g><g><line x1="58.9" x2="135.5" y1="146.8" y2="146.8" class="st78"/><line x1="58.9" x2="111.9" y1="182.9" y2="182.9" class="st78"/><line x1="58.9" x2="198.8" y1="110.7" y2="110.7" class="st78"/><line x1="60.6" x2="120.2" y1="56.2" y2="56.2" class="st78"/></g></g></g><path d="M230.1,193.3c0,21.6-11.8,40.4-29.4,50.4c-8.4,4.7-18.1,7.5-28.4,7.5c-9,0-17.6-2.1-25.2-5.8 c-19.3-9.3-32.6-29.1-32.6-52c0-31.9,25.9-57.8,57.8-57.8C204.3,135.5,230.1,161.4,230.1,193.3z" class="st78"/><path d="M262.2,282.3c-6.2,6.2-16.2,6-22.4-0.2l-0.5-0.5l-33.8-41.7l14.1-14l42.1,33.5 C268.4,265.5,268.6,276,262.2,282.3z" class="st78"/><path d="M194,223.9c-5.5,3.1-12,4.9-18.9,4.9c-6,0-11.6-1.4-16.7-3.9c-12.8-6.2-21.6-19.3-21.6-34.5" class="st78"/><line x1="230.1" x2="214.6" y1="234.3" y2="251.1" class="st78"/></g></g></g></svg>