<svg xmlns="http://www.w3.org/2000/svg" xmlns:xlink="http://www.w3.org/1999/xlink" style="enable-background:new 0 0 300 300" x="0" y="0" version="1.1" viewBox="0 0 300 300" xml:space="preserve"><style type="text/css">.st2{fill:#fff}.st72{fill:none;stroke:#fff;stroke-width:10.0586;stroke-linecap:round;stroke-linejoin:round;stroke-miterlimit:10}.st73{font-family:&apos;Aileron-Bold&apos;}.st74{font-size:45.9448px}</style><g id="Layer_4"><g><g><path d="M181.8,60.9c14.1,3.8,26.6,10.2,38.8,18.9c18.6,12.7,32.2,32.3,38.2,55c0,0,0,0,0,0.5 c0.2,0.4,0.3,0.8,0.6,1.2c0.6,1.1,1.5,2,2.5,2.6l1,0.4h1.3h19.9c3.4,0,6.2,2.9,6.2,6.6v32.6c0,3.6-2.8,6.6-6.2,6.6h-24.6 c-0.3,0-0.6,0-0.9,0c-0.4-0.1-0.9-0.1-1.4,0c-0.7,0.4-1.3,0.8-2,1.3c-0.3,0.4-0.6,0.8-0.8,1.2c-0.2,0.2-0.4,0.5-0.6,0.8 c-8.4,17.9-21.5,32.9-37.6,43.1l0,0c-0.4,0.3-0.7,0.6-1,1c-0.3,0.2-0.5,0.5-0.7,0.8c-0.3,0.8-0.6,1.5-0.9,2.3c0,0.4,0,0.7,0,1.1 c-0.1,0.5-0.1,1,0,1.4l0,0l4.1,20.4c0.5,2.5,0,5-1.3,7.1c-0.7,1.5-1.9,2.6-3.4,3l-14.1,3.6c-3.6,0.7-7.1-1.8-7.7-5.7l-3.4-13.6 l0,0c-0.1-0.3-0.3-0.7-0.5-1c-0.2-0.5-0.4-0.9-0.6-1.3c-0.2-0.2-0.4-0.5-0.7-0.7c-0.3-0.4-0.7-0.7-1.1-1h-0.7 c-0.5-0.2-1-0.4-1.5-0.5h-0.9c-0.5-0.1-1-0.1-1.5,0c-24.3,6.4-49.7,5.9-73.8-1.4h-0.7h-1.2h-1.2l-1,0.3l-1.1,0.7l-0.9,0.7 c-0.3,0.3-0.6,0.7-0.8,1.1c-0.1,0.2-0.3,0.3-0.4,0.5l-9.1,19.1c-0.8,1.6-2.2,2.7-3.9,3.2c-1.7,0.5-3.4,0.2-4.9-0.7l-12.7-7.8 c-3.3-2.1-4.7-6.5-3.2-10.3l8.2-15.2c0.1-0.3,0.2-0.7,0.3-1.1c0.2-0.4,0.3-0.8,0.4-1.2c0-0.4,0-0.8,0-1.2c0-0.8-0.2-1.7-0.6-2.4 c-0.1-0.4-0.3-0.8-0.5-1.1c-0.3-0.3-0.5-0.6-0.9-0.9c-0.2-0.3-0.5-0.5-0.7-0.8c-26.2-18.7-41.3-46-41.3-75.2 c0-10,1.7-19.9,5.2-29.1l0,0v-0.5c6.2-15.5,16-29.1,28.5-39.4C77.4,74.6,91.4,66.9,107.5,62" class="st72"/><g><path d="M182.1,66.9c0-22-16.7-39.9-37.3-39.9c-20.6,0-37.3,17.9-37.3,39.9c0,10.8,4,20.6,10.5,27.8h53.5 C178.1,87.5,182.1,77.7,182.1,66.9z" class="st72"/></g><path d="M227.3,84.9c-8.4-6.8-18.1-13.8-39.1-21.9L221,44.2L227.3,84.9z" class="st72"/><path d="M232.3,128.3c4.7,0,8.5,4.1,8.5,9.1s-3.8,9.1-8.5,9.1s-8.5-4.1-8.5-9.1S227.6,128.3,232.3,128.3z" class="st2"/><path d="M33.1,133.9c-14.8-1.2-24.4-14.9-23.3-30.7c0.5-7.6,3.9-14.6,9.2-19.6" class="st72"/><text class="st2 st73 st74" transform="matrix(0.9349 0 0 1 128.332 81.8042)">Q</text><line x1="101.4" x2="188.2" y1="94.7" y2="94.7" class="st72"/></g></g></g></svg>