<svg xmlns="http://www.w3.org/2000/svg" xmlns:xlink="http://www.w3.org/1999/xlink" style="enable-background:new 0 0 300 300" x="0" y="0" version="1.1" viewBox="0 0 300 300" xml:space="preserve"><style type="text/css">.st70{fill:none;stroke:#fff;stroke-width:11.0802;stroke-linecap:round;stroke-linejoin:round;stroke-miterlimit:10}</style><g id="Layer_4"><g><g><g><line x1="83.5" x2="216.8" y1="148.5" y2="148.5" class="st70"/><g><line x1="186.1" x2="186.1" y1="114.8" y2="148.5" class="st70"/><polyline points="113 114.7 113 148.5 186.1 148.5 186.1 114.8" class="st70"/><path d="M215.9,148.5c-2.2-24.5-7.6-39.8-14.3-50.1c-4.4-6.7-9.6-11.1-14.4-13.4c-4.8-2.4-9-2.9-11.4-2.9 c-0.9,0-1.5,0.1-1.9,0.1c0,0,0,0,0,0h-13.6h-21.5H130h-4.8c0,0,0,0,0,0l0,0c-0.4-0.1-1-0.1-1.9-0.1c-2.4,0-6.6,0.5-11.4,2.9 c-2.2,1.1-4.4,2.6-6.7,4.5c-5.1,4.4-10.1,11.2-13.9,21c-3.4,8.7-6.2,19.8-7.8,34.3c-0.1,1.2-0.3,2.5-0.4,3.8" class="st70"/><line x1="113" x2="113" y1="148.5" y2="114.7" class="st70"/></g><path d="M180.9,42.6c0,18-14.6,32.5-32.5,32.5c-18,0-32.5-14.6-32.5-32.5c0-18,14.6-32.5,32.5-32.5 C166.3,10.1,180.9,24.6,180.9,42.6z" class="st70"/></g><g><path d="M258,86.6V156c0,0,0.1,0.1,0.1,0.1h-0.6c-0.6-1-1.3-1.9-2.1-2.7c-2.8-2.8-6.5-4.4-10.5-4.4 c-4,0-7.7,1.5-10.5,4.4l-62.9,62.4v74.2h70.9v-22.3c0-1.4,0.5-2.7,1.5-3.6l43.9-43.9V86.6c0-8.2-6.7-14.9-14.9-14.9 C264.7,71.7,258,78.4,258,86.6z" class="st70"/><g><path d="M178.7,209l55.6-55.6c2.8-2.8,6.5-4.4,10.5-4.4c4,0,7.7,1.5,10.5,4.4c2.8,2.8,4.4,6.5,4.4,10.5 c0,4-1.5,7.7-4.4,10.5L222.8,207" class="st70"/></g></g><g><path d="M42,86.6V156c0,0,0,0.1-0.1,0.1h0.6c0.6-1,1.3-1.9,2.1-2.7c2.8-2.8,6.5-4.4,10.5-4.4c4,0,7.7,1.5,10.5,4.4 l62.9,62.4v74.2H57.7v-22.3c0-1.4-0.5-2.7-1.5-3.6l-43.9-43.9V86.6c0-8.2,6.7-14.9,14.9-14.9C35.3,71.7,42,78.4,42,86.6z" class="st70"/><g><path d="M77.2,207l-32.6-32.6c-2.8-2.8-4.4-6.5-4.4-10.5c0-4,1.6-7.7,4.4-10.5c2.8-2.8,6.5-4.4,10.5-4.4 c4,0,7.7,1.5,10.5,4.4l55.6,55.6" class="st70"/></g></g></g></g></g></svg>