<svg xmlns="http://www.w3.org/2000/svg" xmlns:xlink="http://www.w3.org/1999/xlink" style="enable-background:new 0 0 300 300" x="0" y="0" version="1.1" viewBox="0 0 300 300" xml:space="preserve"><style type="text/css">.st71{fill:none;stroke:#fff;stroke-width:11.301;stroke-linecap:round;stroke-linejoin:round;stroke-miterlimit:10}</style><g id="Layer_4"><g><g><g><path d="M204,71.9c1.7,5.4,2.7,11.2,2.7,17.2c0,31.4-25.5,56.9-56.9,56.9s-56.9-25.5-56.9-56.9c0-5.8,1-9.6,2.6-16" class="st71"/><path d="M204,71.9c6.4,0.2,8.3-0.7,10.5-4.1c7.3-11.4-11.3-59.2-66.9-59.2C92,8.7,73.4,56.4,80.6,67.9 c2.2,3.4,7.1,4.4,13.4,4.2" class="st71"/><path d="M147.5,18.6c6,0,10.9,4.9,10.9,11c0,6-4.9,10.9-10.9,10.9c-6,0-10.9-4.9-10.9-10.9 C136.6,23.5,141.5,18.6,147.5,18.6z" class="st71"/><path d="M95.4,73.1c-1-1.3-1.6-2.8-1.6-4.2c0-9.7,24.8-17.7,55.5-17.7c30.6,0,55.5,7.9,55.5,17.7 c0,1.4-0.5,2.6-0.5,2.6" class="st71"/><path d="M69.7,51.3H57.1v8.1l-13.9,2v8h13.9l1.4,117.2c2.3-3.2,7.3-7.3,11.2-10.3V51.3z" class="st71"/><path d="M102.8,165.2l107.4,126.1" class="st71"/><path d="M189.5,291.3L86.1,167.6" class="st71"/><g><path d="M95,71.6l0.9,7.6c34.3,14.7,73.2,14.7,107.4,0l0.9-7.6C169.4,56.3,129.8,56.3,95,71.6z" class="st71"/></g><g><line x1="219.4" x2="219.4" y1="227.2" y2="291.3" class="st71"/><polyline points="80.6 227.1 80.6 291.3 219.4 291.3 219.4 227.2" class="st71"/><path d="M276.1,291.3c-4.3-46.4-14.4-75.6-27.2-95.1c-8.4-12.8-18.3-21-27.4-25.5c-9.1-4.6-17.1-5.5-21.6-5.5 c-1.6,0-2.9,0.1-3.6,0.2c0,0,0,0,0,0h-25.8h-40.8h-16.7h-9.2c0,0,0,0-0.1,0h0c-0.8-0.1-2-0.2-3.6-0.2c-4.6,0-12.5,0.9-21.6,5.5 c-4.2,2.1-8.4,4.9-12.7,8.5c-9.7,8.4-19.2,21.3-26.4,39.8c-6.5,16.5-11.7,37.6-14.8,65.2c-0.3,2.3-0.5,4.7-0.7,7.1" class="st71"/><line x1="80.6" x2="80.6" y1="291.3" y2="227.1" class="st71"/></g></g><line x1="23.9" x2="276.1" y1="291.3" y2="291.3" class="st71"/></g></g></g></svg>