<?xml version="1.0" encoding="utf-8"?>
<!-- Generator: Adobe Illustrator 22.0.0, SVG Export Plug-In . SVG Version: 6.00 Build 0)  -->
<svg version="1.1" xmlns="http://www.w3.org/2000/svg" xmlns:xlink="http://www.w3.org/1999/xlink" x="0px" y="0px"
	 viewBox="0 0 300 300" style="enable-background:new 0 0 300 300;" xml:space="preserve">
<style type="text/css">
	.st0{fill:none;stroke:#FFFFFF;stroke-width:3;stroke-miterlimit:10;stroke-dasharray:8;}
	.st1{fill:#EDEDEE;}
	.st2{fill:#FFFFFF;}
	.st3{fill:#FF6064;}
	.st4{fill:#653FE0;}
	.st5{fill:none;stroke:#FFFFFF;stroke-width:2.5;stroke-linecap:round;stroke-linejoin:round;stroke-miterlimit:10;}
	.st6{fill:#FC7F10;}
	.st7{fill:#F13F42;}
	.st8{fill:#FDA20C;}
	.st9{fill:#009EFA;}
	.st10{fill:#FCB810;}
	.st11{fill:#0087FE;}
	.st12{fill:#9CCC39;}
	.st13{fill:#8465E6;}
	.st14{fill:#80B924;}
	.st15{fill:#8E9093;}
	.st16{fill:#EC5657;}
	.st17{fill:#231F20;}
	.st18{opacity:0.2;}
	.st19{fill:none;stroke:#FFFFFF;stroke-width:2;stroke-miterlimit:10;}
	.st20{opacity:0.8;fill:none;stroke:#A2A4A7;stroke-width:2;stroke-miterlimit:10;}
	.st21{opacity:0.7;}
	.st22{fill:#71C2ED;}
	.st23{fill:#EF5E41;}
	.st24{fill:#8D53E8;}
	.st25{fill:#A66CEF;}
	.st26{fill:#E5E7E8;}
	.st27{fill:#00A1A9;}
	.st28{fill:#5A5A5D;}
	.st29{fill:#59595C;}
	.st30{fill:none;stroke:#FFFFFF;stroke-miterlimit:10;}
	.st31{fill:#808080;}
	.st32{fill:#2E2E2F;}
	.st33{fill:#2E2E2F;stroke:#4D4D4D;stroke-width:0.75;stroke-miterlimit:10;}
	.st34{fill:#E0D9F9;}
	.st35{fill:#404041;}
	.st36{fill:#404041;stroke:#FFFFFF;stroke-width:2;stroke-linejoin:round;stroke-miterlimit:10;}
	.st37{fill:none;stroke:#FFFFFF;stroke-width:2;stroke-linecap:round;stroke-linejoin:round;}
	.st38{fill:none;stroke:#FFFFFF;stroke-width:2;stroke-linecap:round;stroke-linejoin:round;stroke-dasharray:2.9493,2.9493;}
	.st39{fill:none;stroke:#FFFFFF;stroke-width:2;stroke-linecap:round;stroke-linejoin:round;stroke-dasharray:3.1622,3.1622;}
	.st40{fill:none;stroke:#FFFFFF;stroke-width:2;stroke-linecap:round;stroke-linejoin:round;stroke-dasharray:2.7981,2.7981;}
	.st41{fill:#A3A5B3;}
	.st42{fill:none;stroke:#6D6E70;stroke-width:0.5;stroke-miterlimit:10;}
	.st43{fill:none;stroke:#FFFFFF;stroke-width:2.5;stroke-miterlimit:10;}
	.st44{fill:#22B373;stroke:#FFFFFF;stroke-width:2.5;stroke-miterlimit:10;}
	.st45{fill:#22B373;stroke:#FFFFFF;stroke-width:2.5;stroke-linecap:round;stroke-miterlimit:10;}
	.st46{fill:none;}
	.st47{fill:none;stroke:#FFFFFF;stroke-width:3;stroke-miterlimit:10;}
	.st48{fill:none;stroke:#FFFFFF;stroke-width:3;stroke-miterlimit:10;stroke-dasharray:3.1802,3.1802;}
	.st49{fill:none;stroke:#FFFFFF;stroke-width:3;stroke-miterlimit:10;stroke-dasharray:3.1983,3.1983;}
	.st50{fill:none;stroke:#FFFFFF;stroke-width:3;stroke-miterlimit:10;stroke-dasharray:3.0388,3.0388;}
	.st51{fill:none;stroke:#FFFFFF;stroke-width:2.5;stroke-linejoin:round;stroke-miterlimit:10;}
	.st52{fill:none;stroke:#FFFFFF;stroke-width:3;stroke-miterlimit:10;stroke-dasharray:2.8444,2.8444;}
	.st53{fill:#58595B;}
	.st54{fill:#C5CED6;}
	.st55{fill:#3D3D3F;}
	.st56{fill:#7C828B;}
	.st57{fill:#FFFFFF;stroke:#FFFFFF;stroke-miterlimit:10;}
	.st58{fill:#B0B2B3;}
	.st59{clip-path:url(#SVGID_2_);}
	.st60{fill:#333333;stroke:#FFFFFF;stroke-width:6;stroke-linejoin:round;stroke-miterlimit:10;}
	.st61{fill:#333333;}
	.st62{opacity:0.59;}
	.st63{opacity:0.25;}
	.st64{opacity:0.74;}
	.st65{fill:#606060;}
	.st66{fill:#F28E1E;}
	.st67{fill:none;stroke:#FFFFFF;stroke-width:11.8137;stroke-linecap:round;stroke-linejoin:round;stroke-miterlimit:10;}
	.st68{fill:none;stroke:#FFFFFF;stroke-width:9.9518;stroke-linecap:round;stroke-linejoin:round;stroke-miterlimit:10;}
	.st69{fill:none;stroke:#FFFFFF;stroke-width:9.8213;stroke-linecap:round;stroke-linejoin:round;stroke-miterlimit:10;}
	.st70{fill:none;stroke:#FFFFFF;stroke-width:11.0802;stroke-linecap:round;stroke-linejoin:round;stroke-miterlimit:10;}
	.st71{fill:none;stroke:#FFFFFF;stroke-width:11.301;stroke-linecap:round;stroke-linejoin:round;stroke-miterlimit:10;}
	.st72{fill:none;stroke:#FFFFFF;stroke-width:10.0586;stroke-linecap:round;stroke-linejoin:round;stroke-miterlimit:10;}
	.st73{fill:none;stroke:#FFFFFF;stroke-width:11.1938;stroke-linecap:round;stroke-linejoin:round;stroke-miterlimit:10;}
	.st74{fill:none;stroke:#FFFFFF;stroke-width:9.8416;stroke-linecap:round;stroke-linejoin:round;stroke-miterlimit:10;}
	.st75{fill:none;stroke:#FFFFFF;stroke-width:8.535;stroke-linecap:round;stroke-linejoin:round;stroke-miterlimit:10;}
	.st76{fill:none;stroke:#FFFFFF;stroke-width:9.8868;stroke-linecap:round;stroke-linejoin:round;stroke-miterlimit:10;}
	.st77{fill:none;stroke:#FFFFFF;stroke-width:9.1425;stroke-linecap:round;stroke-linejoin:round;stroke-miterlimit:10;}
	.st78{fill:none;stroke:#FFFFFF;stroke-width:8.8888;stroke-linecap:round;stroke-linejoin:round;stroke-miterlimit:10;}
	.st79{fill:none;stroke:#FFFFFF;stroke-width:9.9769;stroke-linecap:round;stroke-linejoin:round;stroke-miterlimit:10;}
	.st80{fill:none;stroke:#FFFFFF;stroke-width:8.7375;stroke-linecap:round;stroke-linejoin:round;stroke-miterlimit:10;}
	.st81{fill:none;stroke:#FFFFFF;stroke-width:8.615;stroke-linecap:round;stroke-linejoin:round;stroke-miterlimit:10;}
	.st82{fill:none;stroke:#FFFFFF;stroke-width:1.5;stroke-miterlimit:10;}
	.st83{fill:none;stroke:#FFFFFF;stroke-width:1.5;stroke-miterlimit:10;stroke-dasharray:8;}
	.st84{fill:#33B4BA;}
	.st85{fill:#FFFFFF;stroke:#33B4BA;stroke-width:0.75;stroke-miterlimit:10;}
	.st86{fill:#FFFFFF;stroke:#33B4BA;stroke-width:2;stroke-miterlimit:10;}
	.st87{clip-path:url(#SVGID_4_);}
	.st88{display:none;}
	.st89{display:inline;}
	.st90{opacity:0.1;fill:#26A5DC;}
	.st91{display:inline;fill:#33B4BA;}
	.st92{display:inline;fill:#FFFFFF;stroke:#33B4BA;stroke-width:0.75;stroke-miterlimit:10;}
</style>
<g id="_x3C_Guides_x3E__6_">
</g>
<g id="Layer_4">
	<g>
		<g>
			<g>
				<line class="st70" x1="83.5" y1="148.5" x2="216.8" y2="148.5"/>
				<g>
					<line class="st70" x1="186.1" y1="114.8" x2="186.1" y2="148.5"/>
					<polyline class="st70" points="113,114.7 113,148.5 186.1,148.5 186.1,114.8 					"/>
					<path class="st70" d="M215.9,148.5c-2.2-24.5-7.6-39.8-14.3-50.1c-4.4-6.7-9.6-11.1-14.4-13.4c-4.8-2.4-9-2.9-11.4-2.9
						c-0.9,0-1.5,0.1-1.9,0.1c0,0,0,0,0,0h-13.6h-21.5H130h-4.8c0,0,0,0,0,0l0,0c-0.4-0.1-1-0.1-1.9-0.1c-2.4,0-6.6,0.5-11.4,2.9
						c-2.2,1.1-4.4,2.6-6.7,4.5c-5.1,4.4-10.1,11.2-13.9,21c-3.4,8.7-6.2,19.8-7.8,34.3c-0.1,1.2-0.3,2.5-0.4,3.8"/>
					<line class="st70" x1="113" y1="148.5" x2="113" y2="114.7"/>
				</g>
				<path class="st70" d="M180.9,42.6c0,18-14.6,32.5-32.5,32.5c-18,0-32.5-14.6-32.5-32.5c0-18,14.6-32.5,32.5-32.5
					C166.3,10.1,180.9,24.6,180.9,42.6z"/>
			</g>
			<g>
				<path class="st70" d="M258,86.6V156c0,0,0.1,0.1,0.1,0.1h-0.6c-0.6-1-1.3-1.9-2.1-2.7c-2.8-2.8-6.5-4.4-10.5-4.4
					c-4,0-7.7,1.5-10.5,4.4l-62.9,62.4v74.2h70.9v-22.3c0-1.4,0.5-2.7,1.5-3.6l43.9-43.9V86.6c0-8.2-6.7-14.9-14.9-14.9
					C264.7,71.7,258,78.4,258,86.6z"/>
				<g>
					<path class="st70" d="M178.7,209l55.6-55.6c2.8-2.8,6.5-4.4,10.5-4.4c4,0,7.7,1.5,10.5,4.4c2.8,2.8,4.4,6.5,4.4,10.5
						c0,4-1.5,7.7-4.4,10.5L222.8,207"/>
				</g>
			</g>
			<g>
				<path class="st70" d="M42,86.6V156c0,0,0,0.1-0.1,0.1h0.6c0.6-1,1.3-1.9,2.1-2.7c2.8-2.8,6.5-4.4,10.5-4.4c4,0,7.7,1.5,10.5,4.4
					l62.9,62.4v74.2H57.7v-22.3c0-1.4-0.5-2.7-1.5-3.6l-43.9-43.9V86.6c0-8.2,6.7-14.9,14.9-14.9C35.3,71.7,42,78.4,42,86.6z"/>
				<g>
					<path class="st70" d="M77.2,207l-32.6-32.6c-2.8-2.8-4.4-6.5-4.4-10.5c0-4,1.6-7.7,4.4-10.5c2.8-2.8,6.5-4.4,10.5-4.4
						c4,0,7.7,1.5,10.5,4.4l55.6,55.6"/>
				</g>
			</g>
		</g>
	</g>
</g>
<g id="Layer_5">
</g>
<g id="desktop_-_grid">
</g>
<g id="Gutters" class="st88">
</g>
</svg>
