<?xml version="1.0" encoding="utf-8"?>
<!-- Generator: Adobe Illustrator 22.0.0, SVG Export Plug-In . SVG Version: 6.00 Build 0)  -->
<svg version="1.1" xmlns="http://www.w3.org/2000/svg" xmlns:xlink="http://www.w3.org/1999/xlink" x="0px" y="0px"
	 viewBox="0 0 300 300" style="enable-background:new 0 0 300 300;" xml:space="preserve">
<style type="text/css">
	.st0{fill:none;stroke:#FFFFFF;stroke-width:3;stroke-miterlimit:10;stroke-dasharray:8;}
	.st1{fill:#EDEDEE;}
	.st2{fill:#FFFFFF;}
	.st3{fill:#FF6064;}
	.st4{fill:#653FE0;}
	.st5{fill:none;stroke:#FFFFFF;stroke-width:2.5;stroke-linecap:round;stroke-linejoin:round;stroke-miterlimit:10;}
	.st6{fill:#FC7F10;}
	.st7{fill:#F13F42;}
	.st8{fill:#FDA20C;}
	.st9{fill:#009EFA;}
	.st10{fill:#FCB810;}
	.st11{fill:#0087FE;}
	.st12{fill:#9CCC39;}
	.st13{fill:#8465E6;}
	.st14{fill:#80B924;}
	.st15{fill:#8E9093;}
	.st16{fill:#EC5657;}
	.st17{fill:#231F20;}
	.st18{opacity:0.2;}
	.st19{fill:none;stroke:#FFFFFF;stroke-width:2;stroke-miterlimit:10;}
	.st20{opacity:0.8;fill:none;stroke:#A2A4A7;stroke-width:2;stroke-miterlimit:10;}
	.st21{opacity:0.7;}
	.st22{fill:#71C2ED;}
	.st23{fill:#EF5E41;}
	.st24{fill:#8D53E8;}
	.st25{fill:#A66CEF;}
	.st26{fill:#E5E7E8;}
	.st27{fill:#00A1A9;}
	.st28{fill:#5A5A5D;}
	.st29{fill:#59595C;}
	.st30{fill:none;stroke:#FFFFFF;stroke-miterlimit:10;}
	.st31{fill:#808080;}
	.st32{fill:#2E2E2F;}
	.st33{fill:#2E2E2F;stroke:#4D4D4D;stroke-width:0.75;stroke-miterlimit:10;}
	.st34{fill:#E0D9F9;}
	.st35{fill:#404041;}
	.st36{fill:#404041;stroke:#FFFFFF;stroke-width:2;stroke-linejoin:round;stroke-miterlimit:10;}
	.st37{fill:none;stroke:#FFFFFF;stroke-width:2;stroke-linecap:round;stroke-linejoin:round;}
	.st38{fill:none;stroke:#FFFFFF;stroke-width:2;stroke-linecap:round;stroke-linejoin:round;stroke-dasharray:2.9493,2.9493;}
	.st39{fill:none;stroke:#FFFFFF;stroke-width:2;stroke-linecap:round;stroke-linejoin:round;stroke-dasharray:3.1622,3.1622;}
	.st40{fill:none;stroke:#FFFFFF;stroke-width:2;stroke-linecap:round;stroke-linejoin:round;stroke-dasharray:2.7981,2.7981;}
	.st41{fill:#A3A5B3;}
	.st42{fill:none;stroke:#6D6E70;stroke-width:0.5;stroke-miterlimit:10;}
	.st43{fill:none;stroke:#FFFFFF;stroke-width:2.5;stroke-miterlimit:10;}
	.st44{fill:#22B373;stroke:#FFFFFF;stroke-width:2.5;stroke-miterlimit:10;}
	.st45{fill:#22B373;stroke:#FFFFFF;stroke-width:2.5;stroke-linecap:round;stroke-miterlimit:10;}
	.st46{fill:none;}
	.st47{fill:none;stroke:#FFFFFF;stroke-width:3;stroke-miterlimit:10;}
	.st48{fill:none;stroke:#FFFFFF;stroke-width:3;stroke-miterlimit:10;stroke-dasharray:3.1802,3.1802;}
	.st49{fill:none;stroke:#FFFFFF;stroke-width:3;stroke-miterlimit:10;stroke-dasharray:3.1983,3.1983;}
	.st50{fill:none;stroke:#FFFFFF;stroke-width:3;stroke-miterlimit:10;stroke-dasharray:3.0388,3.0388;}
	.st51{fill:none;stroke:#FFFFFF;stroke-width:2.5;stroke-linejoin:round;stroke-miterlimit:10;}
	.st52{fill:none;stroke:#FFFFFF;stroke-width:3;stroke-miterlimit:10;stroke-dasharray:2.8444,2.8444;}
	.st53{fill:#58595B;}
	.st54{fill:#C5CED6;}
	.st55{fill:#3D3D3F;}
	.st56{fill:#7C828B;}
	.st57{fill:#FFFFFF;stroke:#FFFFFF;stroke-miterlimit:10;}
	.st58{fill:#B0B2B3;}
	.st59{clip-path:url(#SVGID_2_);}
	.st60{fill:#333333;stroke:#FFFFFF;stroke-width:6;stroke-linejoin:round;stroke-miterlimit:10;}
	.st61{fill:#333333;}
	.st62{opacity:0.59;}
	.st63{opacity:0.25;}
	.st64{opacity:0.74;}
	.st65{fill:#606060;}
	.st66{fill:#F28E1E;}
	.st67{fill:none;stroke:#FFFFFF;stroke-width:11.8137;stroke-linecap:round;stroke-linejoin:round;stroke-miterlimit:10;}
	.st68{fill:none;stroke:#FFFFFF;stroke-width:9.9518;stroke-linecap:round;stroke-linejoin:round;stroke-miterlimit:10;}
	.st69{fill:none;stroke:#FFFFFF;stroke-width:9.8213;stroke-linecap:round;stroke-linejoin:round;stroke-miterlimit:10;}
	.st70{fill:none;stroke:#FFFFFF;stroke-width:11.0802;stroke-linecap:round;stroke-linejoin:round;stroke-miterlimit:10;}
	.st71{fill:none;stroke:#FFFFFF;stroke-width:11.301;stroke-linecap:round;stroke-linejoin:round;stroke-miterlimit:10;}
	.st72{fill:none;stroke:#FFFFFF;stroke-width:10.0586;stroke-linecap:round;stroke-linejoin:round;stroke-miterlimit:10;}
	.st73{fill:none;stroke:#FFFFFF;stroke-width:11.1938;stroke-linecap:round;stroke-linejoin:round;stroke-miterlimit:10;}
	.st74{fill:none;stroke:#FFFFFF;stroke-width:9.8416;stroke-linecap:round;stroke-linejoin:round;stroke-miterlimit:10;}
	.st75{fill:none;stroke:#FFFFFF;stroke-width:8.535;stroke-linecap:round;stroke-linejoin:round;stroke-miterlimit:10;}
	.st76{fill:none;stroke:#FFFFFF;stroke-width:9.8868;stroke-linecap:round;stroke-linejoin:round;stroke-miterlimit:10;}
	.st77{fill:none;stroke:#FFFFFF;stroke-width:9.1425;stroke-linecap:round;stroke-linejoin:round;stroke-miterlimit:10;}
	.st78{fill:none;stroke:#FFFFFF;stroke-width:8.8888;stroke-linecap:round;stroke-linejoin:round;stroke-miterlimit:10;}
	.st79{fill:none;stroke:#FFFFFF;stroke-width:9.9769;stroke-linecap:round;stroke-linejoin:round;stroke-miterlimit:10;}
	.st80{fill:none;stroke:#FFFFFF;stroke-width:8.7375;stroke-linecap:round;stroke-linejoin:round;stroke-miterlimit:10;}
	.st81{fill:none;stroke:#FFFFFF;stroke-width:8.615;stroke-linecap:round;stroke-linejoin:round;stroke-miterlimit:10;}
	.st82{fill:none;stroke:#FFFFFF;stroke-width:1.5;stroke-miterlimit:10;}
	.st83{fill:none;stroke:#FFFFFF;stroke-width:1.5;stroke-miterlimit:10;stroke-dasharray:8;}
	.st84{fill:#33B4BA;}
	.st85{fill:#FFFFFF;stroke:#33B4BA;stroke-width:0.75;stroke-miterlimit:10;}
	.st86{fill:#FFFFFF;stroke:#33B4BA;stroke-width:2;stroke-miterlimit:10;}
	.st87{clip-path:url(#SVGID_4_);}
	.st88{display:none;}
	.st89{display:inline;}
	.st90{opacity:0.1;fill:#26A5DC;}
	.st91{display:inline;fill:#33B4BA;}
	.st92{display:inline;fill:#FFFFFF;stroke:#33B4BA;stroke-width:0.75;stroke-miterlimit:10;}
</style>
<g id="_x3C_Guides_x3E__6_">
</g>
<g id="Layer_4">
	<g>
		<g>
			<path class="st75" d="M198,193.5c4.5,8.9,12.7,15,22.4,16.7c1.8,0.3,3.6,0.5,5.4,0.5c7.8,0,15.4-3,21.3-8.5"/>
			<path class="st75" d="M269.8,167.8c-2.9-5.8-8.2-9.7-14.5-10.8c-6.3-1.1-12.7,0.8-17.4,5.2"/>
			<path class="st75" d="M96.8,128.1c-2.7-15.3-7.6-43-7.7-43.4c-0.3-1.6,1.8-6,11.7-11.6c9.8-5.6,23.5-10.1,38.6-12.7
				c8.8-1.6,17.4-2.3,25.5-2.3c19.6,0,29.5,4.8,30.1,8c0.1,0.7,9.4,53.3,9.4,53.3c4.9,27.9-13.5,66.2-42,71.2
				c-2.2,0.4-4.4,0.6-6.6,0.6c0,0,0,0,0,0c-10.3,0-20.3-3.9-29-10.2"/>
			<path class="st75" d="M184.9,152.8c-7.3-6.8-17-9.7-26.7-8c-9.7,1.7-17.9,7.8-22.4,16.7"/>
			<g>
				<path class="st75" d="M68.3,108.6c-20.8-7.3-41.6-2.9-49.3,4.5c-11.1,10.6-14.1,24.1-3.5,35.2c10.6,11.1,13.1,19.3,4.8,27.2
					c-11.1,10.6-11.5,26.8-0.9,37.9c12.4,12.9,24.8,21,36.6,25.1c21.1,7.4,40,2.4,52.5-9.5c33.3-31.8,17.9-70.1-13.9-103.4
					C86.6,117.3,77.5,111.8,68.3,108.6z M41.5,139.4c-2.7,2.6-6.5,3.3-9.8,2.1c-1.4-0.5-2.7-1.3-3.7-2.4c-3.7-3.8-3.5-9.9,0.3-13.5
					c2.7-2.6,6.5-3.3,9.8-2.1c1.4,0.5,2.7,1.3,3.8,2.4C45.4,129.7,45.3,135.7,41.5,139.4z M46.8,203.2c-3.2,3.1-7.8,3.9-11.8,2.5
					c-1.7-0.6-3.2-1.6-4.5-2.9c-4.4-4.6-4.2-11.9,0.4-16.3c3.2-3.1,7.8-3.9,11.8-2.5c1.7,0.6,3.2,1.5,4.5,2.9
					C51.5,191.6,51.4,198.9,46.8,203.2z M76.6,142.9c-2.7,2.6-6.5,3.3-9.8,2.1c-1.4-0.5-2.7-1.3-3.8-2.4c-3.7-3.8-3.5-9.9,0.3-13.5
					c2.7-2.6,6.5-3.3,9.8-2.1c1.4,0.5,2.7,1.3,3.8,2.4C80.6,133.2,80.5,139.3,76.6,142.9z M94.7,184c2.7-2.6,6.5-3.3,9.8-2.1
					c1.4,0.5,2.7,1.3,3.8,2.4c3.7,3.8,3.5,9.9-0.3,13.6c-2.7,2.6-6.5,3.3-9.8,2.1c-1.4-0.5-2.7-1.3-3.7-2.4
					C90.7,193.7,90.8,187.7,94.7,184z M94.4,149.1c1.4,0.5,2.7,1.3,3.8,2.4c3.7,3.8,3.5,9.9-0.3,13.5c-2.7,2.6-6.5,3.3-9.8,2.1
					c-1.4-0.5-2.7-1.3-3.7-2.4c-3.7-3.8-3.5-9.9,0.3-13.6C87.3,148.7,91.1,148,94.4,149.1z"/>
			</g>
			<path class="st75" d="M202.2,105c11.2-1.1,25.6,0.3,40.4,4c8.7,2.2,16.8,4.9,24.2,8.2c17.9,8,25,16.4,24.2,19.6
				c-0.2,0.7-13.1,52.5-13.1,52.5c-6.8,27.4-39.3,55-67.3,48c-2.1-0.5-4.2-1.3-6.3-2.2c0,0,0,0,0,0c-17.7-7.9-28.8-28.2-31.6-48.1"
				/>
			<path class="st75" d="M224.7,158.5c-2.9-5.8-8.2-9.7-14.5-10.8c-2.7-0.5-5.3-0.4-7.9,0.1"/>
			<path class="st75" d="M154.8,92.6c3,5.7,8.4,9.6,14.7,10.7c6.3,1,12.6-1,17.3-5.5"/>
			<path class="st75" d="M109.5,109.2c5.5,3.4,12.1,3.9,18.1,1.5c6-2.4,10.4-7.4,12-13.6"/>
		</g>
	</g>
</g>
<g id="Layer_5">
</g>
<g id="desktop_-_grid">
</g>
<g id="Gutters" class="st88">
</g>
</svg>
