<svg xmlns="http://www.w3.org/2000/svg" xmlns:xlink="http://www.w3.org/1999/xlink" style="enable-background:new 0 0 300 300" x="0" y="0" version="1.1" viewBox="0 0 300 300" xml:space="preserve"><style type="text/css">.st69{fill:none;stroke:#fff;stroke-width:11.8137;stroke-linecap:round;stroke-linejoin:round;stroke-miterlimit:10}</style><g id="Layer_4"><g><g><polygon points="162.1 43.9 257.3 139.1 240.5 155.9 145.3 60.7" class="st69"/><path d="M277.1,119.3L257.4,139l-95.2-95.2L181.9,24c4.9-4.9,11.4-7.6,18.4-7.6c7,0,13.5,2.7,18.4,7.6l58.4,58.5 C287.3,92.6,287.3,109.1,277.1,119.3z" class="st69"/><polyline points="145.6 60.4 16.6 189.5 17.2 244.2 17.2 284 57.1 284 111.7 284.9 240.8 155.7" class="st69"/><path d="M18.2,243c20.8,2.6,37.2,19.1,39.9,39.9" class="st69"/><line x1="16.6" x2="111.7" y1="189.5" y2="284.9" class="st69"/><line x1="64.3" x2="193.5" y1="237.2" y2="108" class="st69"/><line x1="47.3" x2="176.5" y1="220.5" y2="91.3" class="st69"/><line x1="80.9" x2="210.1" y1="254" y2="124.8" class="st69"/></g></g></g></svg>